<svg xmlns="http://www.w3.org/2000/svg" xmlns:xlink="http://www.w3.org/1999/xlink" width="325" height="363" viewBox="0 0 325 363"><defs><clipPath id="b"><rect width="325" height="363"/></clipPath></defs><g id="a" clip-path="url(#b)"><g transform="translate(-13.508 -9.971)" fill="#fff" stroke-linecap="square"><path d="M 176.8121490478516 365.8036193847656 C 166.8660888671875 351.5113220214844 149.3463897705078 330.7135620117188 126.5735473632813 321.2752685546875 L 126.4335479736328 321.2172241210938 L 126.2895431518555 321.1699829101563 C 110.6662445068359 316.0417175292969 95.97984313964844 308.5319213867188 82.63824462890625 298.8492126464844 C 69.45429229736328 289.2809753417969 57.86804580688477 277.8012084960938 48.20134735107422 264.7289733886719 C 38.42089462280273 251.5029296875 30.82294654846191 236.9352722167969 25.61854553222656 221.4306793212891 C 20.23679542541504 205.3976745605469 17.50799560546875 188.6141204833984 17.50799560546875 171.5463256835938 C 17.50799560546875 160.8539733886719 18.59109497070313 150.1694793701172 20.727294921875 139.7896728515625 C 22.80879592895508 129.6754760742188 25.91469573974609 119.7267227172852 29.95879554748535 110.2198257446289 C 33.92999649047852 100.8842239379883 38.84554672241211 91.87967681884766 44.56889724731445 83.45622253417969 C 50.23889541625977 75.11127471923828 56.75069427490234 67.26387023925781 63.92349624633789 60.13197326660156 C 71.09669494628906 52.9996223449707 78.98974609375 46.52437210083008 87.38344573974609 40.88607406616211 C 95.85704803466797 35.19407272338867 104.9154968261719 30.30532264709473 114.3071441650391 26.35567283630371 C 123.8719482421875 22.33317375183105 133.8815002441406 19.24382400512695 144.0577392578125 17.17337417602539 C 154.5016937255859 15.04842376708984 165.2522888183594 13.97102355957031 176.0108947753906 13.97102355957031 C 186.768798828125 13.97102355957031 197.5186920166016 15.04842376708984 207.9620971679688 17.17337417602539 C 218.1378021240234 19.24382400512695 228.1468505859375 22.33317375183105 237.7112426757813 26.35562324523926 C 247.1024932861328 30.30532264709473 256.1605834960938 35.19402313232422 264.6339416503906 40.88602447509766 C 273.02734375 46.52437210083008 280.9201965332031 52.9996223449707 288.0932006835938 60.13192367553711 C 295.2658081054688 67.26387023925781 301.7774963378906 75.11127471923828 307.4473876953125 83.4561767578125 C 313.170654296875 91.87967681884766 318.0861511230469 100.8842239379883 322.0572814941406 110.2198257446289 C 326.1013488769531 119.7267227172852 329.2072448730469 129.6754760742188 331.2887573242188 139.7896728515625 C 333.4248962402344 150.1694793701172 334.5079956054688 160.8539733886719 334.5079956054688 171.5463256835938 C 334.5079956054688 187.9918212890625 331.97119140625 204.1928253173828 326.9679870605469 219.6992797851563 C 322.1276550292969 234.7012176513672 315.0431518554688 248.8757781982422 305.9113464355469 261.8291320800781 C 296.8969421386719 274.615966796875 286.0514526367188 285.9856262207031 273.6760864257813 295.6223754882813 C 261.1886901855469 305.3463134765625 247.37548828125 313.12255859375 232.6201934814453 318.7351379394531 L 232.6777954101563 319.0197143554688 C 206.4958038330078 328.5676879882813 187.4118957519531 350.64501953125 176.8121490478516 365.8036193847656 Z" stroke="none"/><path d="M 176.0108947753906 17.97103881835938 C 90.81768798828125 17.97103881835938 21.50799560546875 86.86459350585938 21.50799560546875 171.5463409423828 C 21.50799560546875 237.9505462646484 64.1177978515625 296.5523986816406 128.1050415039063 317.580078125 C 149.4361267089844 326.4208374023438 166.2235565185547 344.6867370605469 176.8226165771484 358.9669799804688 C 188.1805267333984 343.7876586914063 206.6452331542969 324.2737121582031 231.2556762695313 315.2807006835938 L 231.1981506347656 314.9963989257813 C 290.5984191894531 292.4021911621094 330.5079956054688 234.7540283203125 330.5079956054688 171.5463409423828 C 330.5079956054688 86.86459350585938 261.2008972167969 17.97103881835938 176.0108947753906 17.97103881835938 M 176.0108947753906 9.971038818359375 C 265.7551879882813 9.971038818359375 338.5079956054688 82.31106567382813 338.5079956054688 171.5463409423828 C 338.5079956054688 240.4435424804688 295.1234741210938 299.2401733398438 234.0423126220703 322.4737548828125 L 234.9939422607422 322.4396667480469 C 210.3436279296875 331.0695495605469 190.0099945068359 352.5874328613281 176.8077392578125 372.9710083007813 C 164.7806854248047 354.3943786621094 146.7859497070313 333.9823303222656 125.0420532226563 324.9704895019531 C 60.26904296875 303.7090148925781 13.50799560546875 243.0712890625 13.50799560546875 171.5463409423828 C 13.50799560546875 82.31106567382813 86.26077270507813 9.971038818359375 176.0108947753906 9.971038818359375 Z" stroke="none" fill="#00c7c9"/></g><g transform="translate(66.089 70.721)"><path d="M34.146,178.12a12.841,12.841,0,0,1-9.154-3.718c-5.182-5.182-4.922-13.878.585-19.381l44.574-44.582c-2.124-2-4.583-4.355-5.957-5.738C28.3,68.812,22.2,47.519,23.409,35.977c.514-4.948,3.819-7.552,6.863-7.936a9.3,9.3,0,0,1,7.895,2.738L93.977,86.617l8.368-8.368c-4.557-6.241-7.306-15.022,3.715-26.076l29.157-29.154a4.1,4.1,0,1,1,5.793,5.8l-29.15,29.15c-7.552,7.578-6.248,11.945-.954,17.813a4.093,4.093,0,0,1-.142,5.641l-13.893,13.9h0l-9.363,9.366a4.1,4.1,0,0,1-5.793-5.8l6.468-6.468L32.373,36.577a1.28,1.28,0,0,0-.674-.4,2.872,2.872,0,0,0-.142.652C30.89,43.268,33.289,62.2,69.991,98.908c2.083,2.086,6.937,6.688,8.8,8.394a.708.708,0,0,1,.093.089,4.043,4.043,0,0,1,.794,1.054h0l0,.007a4.089,4.089,0,0,1,.458,1.855v.011a4.065,4.065,0,0,1-.339,1.658h0l0,.007a3.959,3.959,0,0,1-.8,1.2l-.071.071L31.371,160.814c-2.269,2.269-2.533,5.838-.585,7.794,1.96,1.937,5.525,1.68,7.79-.585l49.5-49.507c.045-.048.089-.093.134-.138l7.664-7.656a4.1,4.1,0,1,1,5.793,5.79l-3.163,3.167a28.891,28.891,0,0,0,5.972,1.136,4.094,4.094,0,0,1,2.988,1.338l40.089,44.019c2.127,2.127,5.7,2.4,7.664.451,1.945-1.952,1.68-5.525-.589-7.794L104.1,108.289l0,0,0,0,0,0-.007-.007h0l0,0,0,0-.007-.007,0,0-.007-.007-.007-.007v0l-.011-.007-.007-.011h0a4.065,4.065,0,0,1-1.107-2.478h0l0-.011h0v-.015h0V105.7h0l0-.011v-.015h0v-.037h0l0-.007v-.052h0v-.015l0-.011v-.317l0-.011h0V105.2h0v-.011h0v-.022h0l0-.011h0v-.015h0v-.011h0V105.1h0a4.1,4.1,0,0,1,1.125-2.537l.007-.007v0l.007,0,0,0,.007-.011.011-.007.007-.011.011-.007.007-.011,13.871-13.871a4.1,4.1,0,0,1,5.641-.145c5.887,5.309,10.264,6.606,17.854-.991L170.6,58.354a4.1,4.1,0,1,1,5.793,5.8L147.259,93.282c-11.069,11.08-19.869,8.323-26.117,3.759l-8.349,8.353,47.633,47.637c5.5,5.5,5.764,14.2.585,19.389s-13.882,4.914-19.385-.6L102.5,128.87a50.731,50.731,0,0,1-10.492-2.69L44.373,173.817A14.5,14.5,0,0,1,34.146,178.12ZM140.195,75.056a4.1,4.1,0,0,1-2.895-7l21.527-21.486a4.1,4.1,0,0,1,5.793,5.8L143.093,73.86A4.093,4.093,0,0,1,140.195,75.056ZM128.41,63.268a4.1,4.1,0,0,1-2.895-7l21.523-21.482a4.1,4.1,0,0,1,5.793,5.8L131.309,62.072A4.093,4.093,0,0,1,128.41,63.268Z" transform="translate(0 1.493)" fill="#00c7c9"/><path d="M67.419,43.293a4.1,4.1,0,0,1-2.895-7c.768-.771,1.412-4.4-.089-5.905a4.308,4.308,0,0,0-3.137-.913,4.972,4.972,0,0,0-2.768.827,4.1,4.1,0,1,1-5.8-5.793,12.587,12.587,0,0,1,8.208-3.223A12.034,12.034,0,0,1,70.228,24.6c4.735,4.735,4.005,13.576.086,17.492A4.077,4.077,0,0,1,67.419,43.293Z" transform="translate(82.485 0)" fill="#00c7c9"/><path d="M70.579,46.453a4.1,4.1,0,0,1-2.895-7c.79-.794,1.449-4.37-.089-5.909a4.3,4.3,0,0,0-3.133-.913,5.037,5.037,0,0,0-2.768.827,4.1,4.1,0,1,1-5.8-5.79,12.569,12.569,0,0,1,8.2-3.223,12.142,12.142,0,0,1,9.292,3.3c4.732,4.735,4,13.58.082,17.5A4.088,4.088,0,0,1,70.579,46.453Z" transform="translate(91.11 8.628)" fill="#00c7c9"/><path d="M73.744,49.594a4.1,4.1,0,0,1-2.9-6.993c.771-.771,1.423-4.4-.086-5.909-1.539-1.542-5.115-.876-5.909-.082a4.1,4.1,0,0,1-5.79-5.8c3.912-3.916,12.761-4.65,17.5.086s4,13.573.086,17.492A4.085,4.085,0,0,1,73.744,49.594Z" transform="translate(99.732 17.272)" fill="#00c7c9"/></g></g></svg>