<svg xmlns="http://www.w3.org/2000/svg" xmlns:xlink="http://www.w3.org/1999/xlink" width="325" height="363" viewBox="0 0 325 363"><defs><clipPath id="b"><rect width="325" height="363"/></clipPath></defs><g id="a" clip-path="url(#b)"><g transform="translate(-13.508 -9.971)" fill="#fff" stroke-linecap="square"><path d="M 176.8121490478516 365.8036193847656 C 166.8660888671875 351.5113220214844 149.3463897705078 330.7135620117188 126.5735473632813 321.2752685546875 L 126.4335479736328 321.2172241210938 L 126.2895431518555 321.1699829101563 C 110.6662445068359 316.0417175292969 95.97984313964844 308.5319213867188 82.63824462890625 298.8492126464844 C 69.45429229736328 289.2809753417969 57.86804580688477 277.8012084960938 48.20134735107422 264.7289733886719 C 38.42089462280273 251.5029296875 30.82294654846191 236.9352722167969 25.61854553222656 221.4306793212891 C 20.23679542541504 205.3976745605469 17.50799560546875 188.6141204833984 17.50799560546875 171.5463256835938 C 17.50799560546875 160.8539733886719 18.59109497070313 150.1694793701172 20.727294921875 139.7896728515625 C 22.80879592895508 129.6754760742188 25.91469573974609 119.7267227172852 29.95879554748535 110.2198257446289 C 33.92999649047852 100.8842239379883 38.84554672241211 91.87967681884766 44.56889724731445 83.45622253417969 C 50.23889541625977 75.11127471923828 56.75069427490234 67.26387023925781 63.92349624633789 60.13197326660156 C 71.09669494628906 52.9996223449707 78.98974609375 46.52437210083008 87.38344573974609 40.88607406616211 C 95.85704803466797 35.19407272338867 104.9154968261719 30.30532264709473 114.3071441650391 26.35567283630371 C 123.8719482421875 22.33317375183105 133.8815002441406 19.24382400512695 144.0577392578125 17.17337417602539 C 154.5016937255859 15.04842376708984 165.2522888183594 13.97102355957031 176.0108947753906 13.97102355957031 C 186.768798828125 13.97102355957031 197.5186920166016 15.04842376708984 207.9620971679688 17.17337417602539 C 218.1378021240234 19.24382400512695 228.1468505859375 22.33317375183105 237.7112426757813 26.35562324523926 C 247.1024932861328 30.30532264709473 256.1605834960938 35.19402313232422 264.6339416503906 40.88602447509766 C 273.02734375 46.52437210083008 280.9201965332031 52.9996223449707 288.0932006835938 60.13192367553711 C 295.2658081054688 67.26387023925781 301.7774963378906 75.11127471923828 307.4473876953125 83.4561767578125 C 313.170654296875 91.87967681884766 318.0861511230469 100.8842239379883 322.0572814941406 110.2198257446289 C 326.1013488769531 119.7267227172852 329.2072448730469 129.6754760742188 331.2887573242188 139.7896728515625 C 333.4248962402344 150.1694793701172 334.5079956054688 160.8539733886719 334.5079956054688 171.5463256835938 C 334.5079956054688 187.9918212890625 331.97119140625 204.1928253173828 326.9679870605469 219.6992797851563 C 322.1276550292969 234.7012176513672 315.0431518554688 248.8757781982422 305.9113464355469 261.8291320800781 C 296.8969421386719 274.615966796875 286.0514526367188 285.9856262207031 273.6760864257813 295.6223754882813 C 261.1886901855469 305.3463134765625 247.37548828125 313.12255859375 232.6201934814453 318.7351379394531 L 232.6777954101563 319.0197143554688 C 206.4958038330078 328.5676879882813 187.4118957519531 350.64501953125 176.8121490478516 365.8036193847656 Z" stroke="none"/><path d="M 176.0108947753906 17.97103881835938 C 90.81768798828125 17.97103881835938 21.50799560546875 86.86459350585938 21.50799560546875 171.5463409423828 C 21.50799560546875 237.9505462646484 64.1177978515625 296.5523986816406 128.1050415039063 317.580078125 C 149.4361267089844 326.4208374023438 166.2235565185547 344.6867370605469 176.8226165771484 358.9669799804688 C 188.1805267333984 343.7876586914063 206.6452331542969 324.2737121582031 231.2556762695313 315.2807006835938 L 231.1981506347656 314.9963989257813 C 290.5984191894531 292.4021911621094 330.5079956054688 234.7540283203125 330.5079956054688 171.5463409423828 C 330.5079956054688 86.86459350585938 261.2008972167969 17.97103881835938 176.0108947753906 17.97103881835938 M 176.0108947753906 9.971038818359375 C 265.7551879882813 9.971038818359375 338.5079956054688 82.31106567382813 338.5079956054688 171.5463409423828 C 338.5079956054688 240.4435424804688 295.1234741210938 299.2401733398438 234.0423126220703 322.4737548828125 L 234.9939422607422 322.4396667480469 C 210.3436279296875 331.0695495605469 190.0099945068359 352.5874328613281 176.8077392578125 372.9710083007813 C 164.7806854248047 354.3943786621094 146.7859497070313 333.9823303222656 125.0420532226563 324.9704895019531 C 60.26904296875 303.7090148925781 13.50799560546875 243.0712890625 13.50799560546875 171.5463409423828 C 13.50799560546875 82.31106567382813 86.26077270507813 9.971038818359375 176.0108947753906 9.971038818359375 Z" stroke="none" fill="#00c7c9"/></g><g transform="translate(74.457 66.419)"><path d="M34.21,106.848A4.458,4.458,0,0,1,33,106.674a4.382,4.382,0,0,1-2.981-5.421l14.9-51.131a4.385,4.385,0,0,1,4.193-3.147,4.433,4.433,0,0,1,1.212.17A4.36,4.36,0,0,1,53.3,52.562L38.4,103.7A4.4,4.4,0,0,1,34.21,106.848Z" transform="translate(6.99 74.151)" fill="#00c7c9"/><path d="M60.762,65.336a4.383,4.383,0,0,1-3.773-2.173l-14.3-24.574A4.365,4.365,0,1,1,50.234,34.2L62.8,55.778l21.75-6.653a4.361,4.361,0,0,1,5.458,2.9,4.392,4.392,0,0,1-2.892,5.458L62.038,65.142A4.292,4.292,0,0,1,60.762,65.336Z" transform="translate(44.242 28.692)" fill="#00c7c9"/><path d="M71.766,129.433a4.35,4.35,0,0,1-4.286-3.583L51.438,38.769a4.363,4.363,0,0,1,3.494-5.086,4.016,4.016,0,0,1,.792-.077,4.366,4.366,0,0,1,4.3,3.587l16.042,87.089a4.348,4.348,0,0,1-3.511,5.078A4.018,4.018,0,0,1,71.766,129.433Z" transform="translate(72.404 33.513)" fill="#00c7c9"/><path d="M92.875,159.781a4.345,4.345,0,0,1-4.29-3.575l-6.5-35.3L44.318,99.7A18.272,18.272,0,0,1,35.7,78.595L46.956,39.967a13.224,13.224,0,1,1,25.394,7.393l-12.673,43.5a4.368,4.368,0,0,1-8.386-2.444l12.673-43.5a4.5,4.5,0,0,0-4.323-5.74,4.507,4.507,0,0,0-4.3,3.236L44.092,81.043A9.526,9.526,0,0,0,48.6,92.079l39.545,22.21A4.372,4.372,0,0,1,90.3,117.3l6.876,37.319a4.377,4.377,0,0,1-3.5,5.09A3.908,3.908,0,0,1,92.875,159.781Z" transform="translate(22.547 23.892)" fill="#00c7c9"/><g transform="translate(27.543 50.039)"><path d="M41.984,85.6A14.447,14.447,0,0,1,28.12,67.121l7.922-27.2a11.539,11.539,0,0,1,8.992-8.132l12.22-2.274a8.09,8.09,0,0,1,1.454-.137,7.882,7.882,0,0,1,7.55,10.083L55.84,75.2A14.518,14.518,0,0,1,41.984,85.6ZM46.63,40.374a2.81,2.81,0,0,0-2.2,2L36.51,69.565a5.7,5.7,0,0,0,3.555,6.969,5.264,5.264,0,0,0,1.794.307,5.881,5.881,0,0,0,5.6-4.088L57.477,38.37Z" transform="translate(-27.543 -29.378)" fill="#00c7c9"/></g><path d="M55.918,55.412A16.415,16.415,0,1,1,72.328,39,16.428,16.428,0,0,1,55.918,55.412Zm0-24.1A7.682,7.682,0,1,0,63.606,39,7.693,7.693,0,0,0,55.918,31.315Z" transform="translate(36.373 0)" fill="#00c7c9"/></g></g></svg>