<svg xmlns="http://www.w3.org/2000/svg" xmlns:xlink="http://www.w3.org/1999/xlink" width="325" height="363" viewBox="0 0 325 363"><defs><clipPath id="b"><rect width="325" height="363"/></clipPath></defs><g id="a" clip-path="url(#b)"><g transform="translate(-13.508 -9.971)" fill="#fff" stroke-linecap="square"><path d="M 176.8121490478516 365.8036193847656 C 166.8660888671875 351.5113220214844 149.3463897705078 330.7135620117188 126.5735473632813 321.2752685546875 L 126.4335479736328 321.2172241210938 L 126.2895431518555 321.1699829101563 C 110.6662445068359 316.0417175292969 95.97984313964844 308.5319213867188 82.63824462890625 298.8492126464844 C 69.45429229736328 289.2809753417969 57.86804580688477 277.8012084960938 48.20134735107422 264.7289733886719 C 38.42089462280273 251.5029296875 30.82294654846191 236.9352722167969 25.61854553222656 221.4306793212891 C 20.23679542541504 205.3976745605469 17.50799560546875 188.6141204833984 17.50799560546875 171.5463256835938 C 17.50799560546875 160.8539733886719 18.59109497070313 150.1694793701172 20.727294921875 139.7896728515625 C 22.80879592895508 129.6754760742188 25.91469573974609 119.7267227172852 29.95879554748535 110.2198257446289 C 33.92999649047852 100.8842239379883 38.84554672241211 91.87967681884766 44.56889724731445 83.45622253417969 C 50.23889541625977 75.11127471923828 56.75069427490234 67.26387023925781 63.92349624633789 60.13197326660156 C 71.09669494628906 52.9996223449707 78.98974609375 46.52437210083008 87.38344573974609 40.88607406616211 C 95.85704803466797 35.19407272338867 104.9154968261719 30.30532264709473 114.3071441650391 26.35567283630371 C 123.8719482421875 22.33317375183105 133.8815002441406 19.24382400512695 144.0577392578125 17.17337417602539 C 154.5016937255859 15.04842376708984 165.2522888183594 13.97102355957031 176.0108947753906 13.97102355957031 C 186.768798828125 13.97102355957031 197.5186920166016 15.04842376708984 207.9620971679688 17.17337417602539 C 218.1378021240234 19.24382400512695 228.1468505859375 22.33317375183105 237.7112426757813 26.35562324523926 C 247.1024932861328 30.30532264709473 256.1605834960938 35.19402313232422 264.6339416503906 40.88602447509766 C 273.02734375 46.52437210083008 280.9201965332031 52.9996223449707 288.0932006835938 60.13192367553711 C 295.2658081054688 67.26387023925781 301.7774963378906 75.11127471923828 307.4473876953125 83.4561767578125 C 313.170654296875 91.87967681884766 318.0861511230469 100.8842239379883 322.0572814941406 110.2198257446289 C 326.1013488769531 119.7267227172852 329.2072448730469 129.6754760742188 331.2887573242188 139.7896728515625 C 333.4248962402344 150.1694793701172 334.5079956054688 160.8539733886719 334.5079956054688 171.5463256835938 C 334.5079956054688 187.9918212890625 331.97119140625 204.1928253173828 326.9679870605469 219.6992797851563 C 322.1276550292969 234.7012176513672 315.0431518554688 248.8757781982422 305.9113464355469 261.8291320800781 C 296.8969421386719 274.615966796875 286.0514526367188 285.9856262207031 273.6760864257813 295.6223754882813 C 261.1886901855469 305.3463134765625 247.37548828125 313.12255859375 232.6201934814453 318.7351379394531 L 232.6777954101563 319.0197143554688 C 206.4958038330078 328.5676879882813 187.4118957519531 350.64501953125 176.8121490478516 365.8036193847656 Z" stroke="none"/><path d="M 176.0108947753906 17.97103881835938 C 90.81768798828125 17.97103881835938 21.50799560546875 86.86459350585938 21.50799560546875 171.5463409423828 C 21.50799560546875 237.9505462646484 64.1177978515625 296.5523986816406 128.1050415039063 317.580078125 C 149.4361267089844 326.4208374023438 166.2235565185547 344.6867370605469 176.8226165771484 358.9669799804688 C 188.1805267333984 343.7876586914063 206.6452331542969 324.2737121582031 231.2556762695313 315.2807006835938 L 231.1981506347656 314.9963989257813 C 290.5984191894531 292.4021911621094 330.5079956054688 234.7540283203125 330.5079956054688 171.5463409423828 C 330.5079956054688 86.86459350585938 261.2008972167969 17.97103881835938 176.0108947753906 17.97103881835938 M 176.0108947753906 9.971038818359375 C 265.7551879882813 9.971038818359375 338.5079956054688 82.31106567382813 338.5079956054688 171.5463409423828 C 338.5079956054688 240.4435424804688 295.1234741210938 299.2401733398438 234.0423126220703 322.4737548828125 L 234.9939422607422 322.4396667480469 C 210.3436279296875 331.0695495605469 190.0099945068359 352.5874328613281 176.8077392578125 372.9710083007813 C 164.7806854248047 354.3943786621094 146.7859497070313 333.9823303222656 125.0420532226563 324.9704895019531 C 60.26904296875 303.7090148925781 13.50799560546875 243.0712890625 13.50799560546875 171.5463409423828 C 13.50799560546875 82.31106567382813 86.26077270507813 9.971038818359375 176.0108947753906 9.971038818359375 Z" stroke="none" fill="#00c7c9"/></g><g transform="translate(65.462 68.19)"><path d="M137.96,49.934h-2.138a3.861,3.861,0,0,0-3.736-3.028h-90.9a3.914,3.914,0,0,0-3.914,3.914c0,25.313,14.873,46.734,35.216,53.658H46.922a3.912,3.912,0,0,0,0,7.825h79.423a3.912,3.912,0,0,0,0-7.825H100.787a49.871,49.871,0,0,0,24.908-19.524,17.188,17.188,0,0,0,2.181.665,18.848,18.848,0,0,0,4.213.48,18.077,18.077,0,0,0,18.079-18.079V62.146A12.222,12.222,0,0,0,137.96,49.934ZM86.64,99.027c-21.773,0-39.685-19.535-41.407-44.3h82.8C126.314,79.492,108.405,99.027,86.64,99.027Zm55.7-31.006a10.26,10.26,0,0,1-10.255,10.251,11.32,11.32,0,0,1-2.324-.263,61,61,0,0,0,5.811-20.25h2.384a4.391,4.391,0,0,1,4.384,4.387Z" transform="translate(35.127 69.318)" fill="#00c7c9"/><path d="M60.376,87.542a3.916,3.916,0,1,0,4.249-6.579c-3.686-2.377-5.629-5.4-6.494-10.116a14.565,14.565,0,0,1,3.38-11.806c.648-.761,1.473-1.662,2.309-2.58,1.121-1.224,2.263-2.477,3.113-3.508A17.114,17.114,0,0,0,65.867,30.2a3.913,3.913,0,0,0-5.65,5.416,9.178,9.178,0,0,1,.69,12.347c-.783.947-1.836,2.1-2.864,3.224-.9.982-1.779,1.95-2.477,2.761a22.267,22.267,0,0,0-5.138,18.318C51.691,79.123,54.854,83.973,60.376,87.542Z" transform="translate(67.927 23.487)" fill="#00c7c9"/><path d="M56.765,60.961A19.818,19.818,0,0,0,71.172,72.789a4.068,4.068,0,0,0,.8.082,3.916,3.916,0,0,0,.793-7.75,12.058,12.058,0,0,1-8.714-7.028,10.625,10.625,0,0,1,1.541-10.223c.616-.811,1.587-1.875,2.594-2.978,1.117-1.231,2.263-2.5,3.117-3.583a3.914,3.914,0,0,0-6.145-4.85c-.754.954-1.779,2.078-2.768,3.17-1.178,1.3-2.316,2.558-3.042,3.519A18.51,18.51,0,0,0,56.765,60.961Z" transform="translate(81.871 38.785)" fill="#00c7c9"/><path d="M72.745,155.838H50.4L40.461,65.092h60.519l-4.626,42.219a3.915,3.915,0,0,0,3.466,4.32c.146.014.288.025.431.025a3.917,3.917,0,0,0,3.886-3.487l4.722-43.076h5.131a3.916,3.916,0,0,0,0-7.832H66.621L73.04,27.642H85.853a3.916,3.916,0,0,0,0-7.832H69.884A3.92,3.92,0,0,0,66.059,22.9L58.608,57.26H27.452a3.916,3.916,0,0,0,0,7.832h5.131l10.411,95.087a3.912,3.912,0,0,0,3.893,3.484H72.745a3.912,3.912,0,1,0,0-7.825Z" transform="translate(0 0)" fill="#00c7c9"/></g></g></svg>