<svg xmlns="http://www.w3.org/2000/svg" xmlns:xlink="http://www.w3.org/1999/xlink" width="325" height="363" viewBox="0 0 325 363"><defs><clipPath id="b"><rect width="325" height="363"/></clipPath></defs><g id="a" clip-path="url(#b)"><g transform="translate(-13.508 -9.971)" fill="#fff" stroke-linecap="square"><path d="M 176.8121490478516 365.8036193847656 C 166.8660888671875 351.5113220214844 149.3463897705078 330.7135620117188 126.5735473632813 321.2752685546875 L 126.4335479736328 321.2172241210938 L 126.2895431518555 321.1699829101563 C 110.6662445068359 316.0417175292969 95.97984313964844 308.5319213867188 82.63824462890625 298.8492126464844 C 69.45429229736328 289.2809753417969 57.86804580688477 277.8012084960938 48.20134735107422 264.7289733886719 C 38.42089462280273 251.5029296875 30.82294654846191 236.9352722167969 25.61854553222656 221.4306793212891 C 20.23679542541504 205.3976745605469 17.50799560546875 188.6141204833984 17.50799560546875 171.5463256835938 C 17.50799560546875 160.8539733886719 18.59109497070313 150.1694793701172 20.727294921875 139.7896728515625 C 22.80879592895508 129.6754760742188 25.91469573974609 119.7267227172852 29.95879554748535 110.2198257446289 C 33.92999649047852 100.8842239379883 38.84554672241211 91.87967681884766 44.56889724731445 83.45622253417969 C 50.23889541625977 75.11127471923828 56.75069427490234 67.26387023925781 63.92349624633789 60.13197326660156 C 71.09669494628906 52.9996223449707 78.98974609375 46.52437210083008 87.38344573974609 40.88607406616211 C 95.85704803466797 35.19407272338867 104.9154968261719 30.30532264709473 114.3071441650391 26.35567283630371 C 123.8719482421875 22.33317375183105 133.8815002441406 19.24382400512695 144.0577392578125 17.17337417602539 C 154.5016937255859 15.04842376708984 165.2522888183594 13.97102355957031 176.0108947753906 13.97102355957031 C 186.768798828125 13.97102355957031 197.5186920166016 15.04842376708984 207.9620971679688 17.17337417602539 C 218.1378021240234 19.24382400512695 228.1468505859375 22.33317375183105 237.7112426757813 26.35562324523926 C 247.1024932861328 30.30532264709473 256.1605834960938 35.19402313232422 264.6339416503906 40.88602447509766 C 273.02734375 46.52437210083008 280.9201965332031 52.9996223449707 288.0932006835938 60.13192367553711 C 295.2658081054688 67.26387023925781 301.7774963378906 75.11127471923828 307.4473876953125 83.4561767578125 C 313.170654296875 91.87967681884766 318.0861511230469 100.8842239379883 322.0572814941406 110.2198257446289 C 326.1013488769531 119.7267227172852 329.2072448730469 129.6754760742188 331.2887573242188 139.7896728515625 C 333.4248962402344 150.1694793701172 334.5079956054688 160.8539733886719 334.5079956054688 171.5463256835938 C 334.5079956054688 187.9918212890625 331.97119140625 204.1928253173828 326.9679870605469 219.6992797851563 C 322.1276550292969 234.7012176513672 315.0431518554688 248.8757781982422 305.9113464355469 261.8291320800781 C 296.8969421386719 274.615966796875 286.0514526367188 285.9856262207031 273.6760864257813 295.6223754882813 C 261.1886901855469 305.3463134765625 247.37548828125 313.12255859375 232.6201934814453 318.7351379394531 L 232.6777954101563 319.0197143554688 C 206.4958038330078 328.5676879882813 187.4118957519531 350.64501953125 176.8121490478516 365.8036193847656 Z" stroke="none"/><path d="M 176.0108947753906 17.97103881835938 C 90.81768798828125 17.97103881835938 21.50799560546875 86.86459350585938 21.50799560546875 171.5463409423828 C 21.50799560546875 237.9505462646484 64.1177978515625 296.5523986816406 128.1050415039063 317.580078125 C 149.4361267089844 326.4208374023438 166.2235565185547 344.6867370605469 176.8226165771484 358.9669799804688 C 188.1805267333984 343.7876586914063 206.6452331542969 324.2737121582031 231.2556762695313 315.2807006835938 L 231.1981506347656 314.9963989257813 C 290.5984191894531 292.4021911621094 330.5079956054688 234.7540283203125 330.5079956054688 171.5463409423828 C 330.5079956054688 86.86459350585938 261.2008972167969 17.97103881835938 176.0108947753906 17.97103881835938 M 176.0108947753906 9.971038818359375 C 265.7551879882813 9.971038818359375 338.5079956054688 82.31106567382813 338.5079956054688 171.5463409423828 C 338.5079956054688 240.4435424804688 295.1234741210938 299.2401733398438 234.0423126220703 322.4737548828125 L 234.9939422607422 322.4396667480469 C 210.3436279296875 331.0695495605469 190.0099945068359 352.5874328613281 176.8077392578125 372.9710083007813 C 164.7806854248047 354.3943786621094 146.7859497070313 333.9823303222656 125.0420532226563 324.9704895019531 C 60.26904296875 303.7090148925781 13.50799560546875 243.0712890625 13.50799560546875 171.5463409423828 C 13.50799560546875 82.31106567382813 86.26077270507813 9.971038818359375 176.0108947753906 9.971038818359375 Z" stroke="none" fill="#00c7c9"/></g><g transform="translate(56.228 65.32)"><path d="M61.529,52.87A14.667,14.667,0,1,1,76.191,38.2,14.686,14.686,0,0,1,61.529,52.87Zm0-20.712A6.047,6.047,0,1,0,67.576,38.2,6.054,6.054,0,0,0,61.529,32.158Z" transform="translate(77.34 2.636)" fill="#00c7c9"/><path d="M87.425,117.4a23.4,23.4,0,0,1-12.387-4.16A120.347,120.347,0,0,1,52.2,92.7c-13.2-15.221-21.271-30.016-22.712-41.665A5.707,5.707,0,0,1,31.36,45.75a5.381,5.381,0,0,1,3.45-1.245,5.6,5.6,0,0,1,1.731.274,45.746,45.746,0,0,1,13.571,7.541,4.313,4.313,0,0,1-5.275,6.826,46.4,46.4,0,0,0-5.581-3.74c2.78,9.247,9.443,20.1,19.458,31.637a111.5,111.5,0,0,0,21.214,19.1,14.575,14.575,0,0,0,7.447,2.633,3.105,3.105,0,0,0,2.07-.568c1.523-1.445.559-4.348-2.87-8.635a4.311,4.311,0,1,1,6.732-5.385c8.807,11.011,5.067,17.433,2.058,20.287A11.13,11.13,0,0,1,87.425,117.4Z" transform="translate(23.584 67.281)" fill="#00c7c9"/><path d="M56.442,74.283a4.312,4.312,0,0,1-3.495-1.78C45.733,62.586,40.27,58.017,37.939,56.074a4.314,4.314,0,1,1,5.5-6.651,93.982,93.982,0,0,1,16.49,18.013,4.315,4.315,0,0,1-.955,6.026A4.267,4.267,0,0,1,56.442,74.283Z" transform="translate(44.981 79.36)" fill="#00c7c9"/><path d="M31.636,132.968a4.336,4.336,0,0,1-3.744-2.164c-8.117-14.147-8.166-37.455-.114-53.072,4.8-9.321,13.032-17.642,24.46-24.721a8.287,8.287,0,0,0,3.683-5.32,9.9,9.9,0,0,1-2.65.38,9.437,9.437,0,0,1-6.3-2.58A9.271,9.271,0,0,1,43.9,36.383c.861-3.711,3.875-6.606,8.055-7.749a27.919,27.919,0,0,1,7.394-1.008,25.668,25.668,0,0,1,15.678,5.234c5.957,4.54,9.513,11.313,9.521,18.123.016,7.48-2.535,12.816-4.781,17.531C77.575,73.087,76,76.385,76.942,80.774a4.328,4.328,0,0,1-3.315,5.12,4.259,4.259,0,0,1-.91.1,4.341,4.341,0,0,1-4.209-3.4c-1.556-7.271,1.119-12.861,3.474-17.8,2.037-4.258,3.956-8.276,3.952-13.792-.012-4.079-2.36-8.4-6.132-11.277a16.966,16.966,0,0,0-10.382-3.491,19.734,19.734,0,0,0-5.185.714,2.638,2.638,0,0,0-1.931,1.38c-.02.094-.073.3.372.686a1.892,1.892,0,0,0,.608.441,5.546,5.546,0,0,0,.951-.261,10.13,10.13,0,0,1,3.209-.625,6.483,6.483,0,0,1,3.148.8,8.175,8.175,0,0,1,4.022,7.251,16.6,16.6,0,0,1-7.827,13.726C46.853,66.5,39.471,73.879,35.441,81.693c-6.728,13.048-6.761,33.148-.069,44.816a4.314,4.314,0,0,1-3.736,6.459Z" transform="translate(0 15.244)" fill="#00c7c9"/><path d="M55.469,70.031c-1.788,0-3.662-.086-5.626-.278a4.315,4.315,0,0,1,.367-8.611l.486.033c1.666.155,3.283.237,4.814.237,5.626,0,10.015-1.086,13.048-3.221C75.425,53.353,82.088,51,88.927,51c7.933,0,16.417,3.229,25.938,9.872a4.311,4.311,0,0,1-2.474,7.847h0a4.294,4.294,0,0,1-2.462-.776c-8.068-5.63-14.976-8.37-21.112-8.37-5.01,0-9.725,1.747-15.29,5.671C69.011,68.426,62.94,70.031,55.469,70.031Z" transform="translate(74.497 87.307)" fill="#00c7c9"/><path d="M61.159,165.042a4.544,4.544,0,0,1-1.168-.155,4.321,4.321,0,0,1-2.984-5.336l.155-.547c2.87-10.154,9.811-34.83,12.314-44.6.943-3.691-1.625-7.819-4.405-10.089A16.412,16.412,0,0,1,60.1,84.791L71.82,59.168,53.692,55.73a4.266,4.266,0,0,1-2.956-2.123L36.969,29.1a4.313,4.313,0,0,1,1.645-5.871,4.381,4.381,0,0,1,2.115-.551,4.332,4.332,0,0,1,3.764,2.2L57.273,47.634l21.594,4.1a3.914,3.914,0,0,1,.47-.2,11.785,11.785,0,0,1,3.94-.674A11.823,11.823,0,0,1,94.6,59.172l15.58,15.249,29.478.306a4.3,4.3,0,0,1,4.271,4.356,4.327,4.327,0,0,1-4.311,4.266l-31.258-.318a4.305,4.305,0,0,1-2.972-1.229L93.164,69.836,80.12,98.476A4.313,4.313,0,1,1,72.273,94.9L86.317,64.083A3.285,3.285,0,0,0,84.8,59.858a3.332,3.332,0,0,0-1.523-.376,3.31,3.31,0,0,0-3.017,1.96L67.97,88.327a7.872,7.872,0,0,0,2.544,9.3c4.638,3.785,9.345,11.007,7.32,18.907C74.8,128.411,65.373,161.682,65.3,161.923A4.331,4.331,0,0,1,61.159,165.042Z" transform="translate(45.142 0)" fill="#00c7c9"/><path d="M38.089,86.739a4.338,4.338,0,0,1-3.854-4.805l3.438-28.759a4.339,4.339,0,0,1,2.556-3.442l21.455-9.341A4.312,4.312,0,1,1,65.121,48.3L45.94,56.653,42.8,82.958a4.311,4.311,0,0,1-4.279,3.8Z" transform="translate(38.327 53.504)" fill="#00c7c9"/></g></g></svg>