<svg xmlns="http://www.w3.org/2000/svg" xmlns:xlink="http://www.w3.org/1999/xlink" width="325" height="363" viewBox="0 0 325 363"><defs><clipPath id="b"><rect width="325" height="363"/></clipPath></defs><g id="a" clip-path="url(#b)"><g transform="translate(-13.508 -9.971)" fill="#fff" stroke-linecap="square"><path d="M 176.8121490478516 365.8036193847656 C 166.8660888671875 351.5113220214844 149.3463897705078 330.7135620117188 126.5735473632813 321.2752685546875 L 126.4335479736328 321.2172241210938 L 126.2895431518555 321.1699829101563 C 110.6662445068359 316.0417175292969 95.97984313964844 308.5319213867188 82.63824462890625 298.8492126464844 C 69.45429229736328 289.2809753417969 57.86804580688477 277.8012084960938 48.20134735107422 264.7289733886719 C 38.42089462280273 251.5029296875 30.82294654846191 236.9352722167969 25.61854553222656 221.4306793212891 C 20.23679542541504 205.3976745605469 17.50799560546875 188.6141204833984 17.50799560546875 171.5463256835938 C 17.50799560546875 160.8539733886719 18.59109497070313 150.1694793701172 20.727294921875 139.7896728515625 C 22.80879592895508 129.6754760742188 25.91469573974609 119.7267227172852 29.95879554748535 110.2198257446289 C 33.92999649047852 100.8842239379883 38.84554672241211 91.87967681884766 44.56889724731445 83.45622253417969 C 50.23889541625977 75.11127471923828 56.75069427490234 67.26387023925781 63.92349624633789 60.13197326660156 C 71.09669494628906 52.9996223449707 78.98974609375 46.52437210083008 87.38344573974609 40.88607406616211 C 95.85704803466797 35.19407272338867 104.9154968261719 30.30532264709473 114.3071441650391 26.35567283630371 C 123.8719482421875 22.33317375183105 133.8815002441406 19.24382400512695 144.0577392578125 17.17337417602539 C 154.5016937255859 15.04842376708984 165.2522888183594 13.97102355957031 176.0108947753906 13.97102355957031 C 186.768798828125 13.97102355957031 197.5186920166016 15.04842376708984 207.9620971679688 17.17337417602539 C 218.1378021240234 19.24382400512695 228.1468505859375 22.33317375183105 237.7112426757813 26.35562324523926 C 247.1024932861328 30.30532264709473 256.1605834960938 35.19402313232422 264.6339416503906 40.88602447509766 C 273.02734375 46.52437210083008 280.9201965332031 52.9996223449707 288.0932006835938 60.13192367553711 C 295.2658081054688 67.26387023925781 301.7774963378906 75.11127471923828 307.4473876953125 83.4561767578125 C 313.170654296875 91.87967681884766 318.0861511230469 100.8842239379883 322.0572814941406 110.2198257446289 C 326.1013488769531 119.7267227172852 329.2072448730469 129.6754760742188 331.2887573242188 139.7896728515625 C 333.4248962402344 150.1694793701172 334.5079956054688 160.8539733886719 334.5079956054688 171.5463256835938 C 334.5079956054688 187.9918212890625 331.97119140625 204.1928253173828 326.9679870605469 219.6992797851563 C 322.1276550292969 234.7012176513672 315.0431518554688 248.8757781982422 305.9113464355469 261.8291320800781 C 296.8969421386719 274.615966796875 286.0514526367188 285.9856262207031 273.6760864257813 295.6223754882813 C 261.1886901855469 305.3463134765625 247.37548828125 313.12255859375 232.6201934814453 318.7351379394531 L 232.6777954101563 319.0197143554688 C 206.4958038330078 328.5676879882813 187.4118957519531 350.64501953125 176.8121490478516 365.8036193847656 Z" stroke="none"/><path d="M 176.0108947753906 17.97103881835938 C 90.81768798828125 17.97103881835938 21.50799560546875 86.86459350585938 21.50799560546875 171.5463409423828 C 21.50799560546875 237.9505462646484 64.1177978515625 296.5523986816406 128.1050415039063 317.580078125 C 149.4361267089844 326.4208374023438 166.2235565185547 344.6867370605469 176.8226165771484 358.9669799804688 C 188.1805267333984 343.7876586914063 206.6452331542969 324.2737121582031 231.2556762695313 315.2807006835938 L 231.1981506347656 314.9963989257813 C 290.5984191894531 292.4021911621094 330.5079956054688 234.7540283203125 330.5079956054688 171.5463409423828 C 330.5079956054688 86.86459350585938 261.2008972167969 17.97103881835938 176.0108947753906 17.97103881835938 M 176.0108947753906 9.971038818359375 C 265.7551879882813 9.971038818359375 338.5079956054688 82.31106567382813 338.5079956054688 171.5463409423828 C 338.5079956054688 240.4435424804688 295.1234741210938 299.2401733398438 234.0423126220703 322.4737548828125 L 234.9939422607422 322.4396667480469 C 210.3436279296875 331.0695495605469 190.0099945068359 352.5874328613281 176.8077392578125 372.9710083007813 C 164.7806854248047 354.3943786621094 146.7859497070313 333.9823303222656 125.0420532226563 324.9704895019531 C 60.26904296875 303.7090148925781 13.50799560546875 243.0712890625 13.50799560546875 171.5463409423828 C 13.50799560546875 82.31106567382813 86.26077270507813 9.971038818359375 176.0108947753906 9.971038818359375 Z" stroke="none" fill="#00c7c9"/></g><path d="M109.012,181.617c-39.37,0-59.335-4.023-59.335-11.961S69.643,157.7,109.012,157.7c6.853,0,16.712.151,26.488.846l-31.47-54.567a48.2,48.2,0,0,0-10.064,11.8l-.13.234-.327.339a3.511,3.511,0,0,1-.779.825l-.151.117-.427.222a4.632,4.632,0,0,1-1.114.456,3.928,3.928,0,0,1-1.084.159h-.23l-.28-.063a5.593,5.593,0,0,1-1.336-.347,31.676,31.676,0,0,0-12.89-3.136c-6.79,0-12.166,2.968-15.98,8.821l-.18.276-.155.117a3.736,3.736,0,0,1-.657.691l-.172.138s-.607.318-.8.41a4.533,4.533,0,0,1-1.382.385l-.109.038-.607.021-.234-.046a4.393,4.393,0,0,1-1.088-.234l-.971-.461-.214-.138-.41-.343a13.316,13.316,0,0,0-7.9-2.981c-3.09,0-6.146,1.432-9.093,4.253a4.591,4.591,0,0,1-4.375,1.118,4.632,4.632,0,0,1-3.219-3.165c-.172-.6-16.093-59.381,39.956-91.742,13.945-8.046,28.28-12.128,42.6-12.128C144,19.617,166.129,42.048,167.058,43a4.6,4.6,0,0,1-1.83,7.552c-10.688,3.592-9.909,13.007-9.742,14.314l.042.1v.394a5.9,5.9,0,0,1-.113,1.419l-.038.155-.176.448a4.947,4.947,0,0,1-.448.883,4.016,4.016,0,0,1-.532.632,4.141,4.141,0,0,1-.641.553,4.52,4.52,0,0,1-.666.385l-.172.113-.234.092a2.331,2.331,0,0,1-.6.13c-17.571,2.319-19.94,21.5-20.028,22.314l-.029.243-.126.347a1.949,1.949,0,0,1-.142.473,4.61,4.61,0,0,1-.548,1.047l-.176.218-.5.532a2.694,2.694,0,0,1-.728.548l-.515.289a4.488,4.488,0,0,1-1.8.385,47.054,47.054,0,0,0-15.335,2.813l34.756,60.269c14.736,1.9,21.606,5.087,21.606,10.01C168.347,177.594,148.382,181.617,109.012,181.617ZM66.407,169.656c8.871,1.52,23.687,2.776,42.606,2.776s33.739-1.256,42.61-2.776c-8.871-1.516-23.7-2.771-42.61-2.771S75.278,168.141,66.407,169.656ZM57.242,50.6c-23.951,21.941-23.859,49.957-21.979,63.718a19.715,19.715,0,0,1,12.384-1.947C45.152,100.939,44.2,80.057,57.242,50.6Zm6.945,7.2c-11.136,27.04-9.34,45.423-7.13,54.253a27.386,27.386,0,0,1,18.354-6.623c.716,0,1.44.025,2.173.071C72,96.615,64.908,80.9,64.188,57.8Zm9.6-15.394C70.535,77.5,82.562,97.72,89.374,106.152a48.8,48.8,0,0,1,13.832-12.8c6.15-3.546,13.242-4.982,17.981-5.564C117.243,77.646,105.655,57.078,73.787,42.4Zm18.337-.578c20,12.434,30.055,26.848,34.9,36.368,2.91-5.689,7.77-11.835,15.8-15.055C136.354,56.776,121.329,45.8,92.124,41.826ZM89.11,32.16c32.366,3.466,50.037,14.912,58.674,22.887a21.356,21.356,0,0,1,7.8-9.868C147.984,39.26,131.552,28.8,110.235,28.8A69.738,69.738,0,0,0,89.11,32.16Z" transform="translate(71.54 68.383)" fill="#00c7c9"/></g></svg>