<svg xmlns="http://www.w3.org/2000/svg" xmlns:xlink="http://www.w3.org/1999/xlink" width="325" height="363" viewBox="0 0 325 363"><defs><clipPath id="b"><rect width="325" height="363"/></clipPath></defs><g id="a" clip-path="url(#b)"><g transform="translate(-13.508 -9.971)" fill="#fff" stroke-linecap="square"><path d="M 176.8121490478516 365.8036193847656 C 166.8660888671875 351.5113220214844 149.3463897705078 330.7135620117188 126.5735473632813 321.2752685546875 L 126.4335479736328 321.2172241210938 L 126.2895431518555 321.1699829101563 C 110.6662445068359 316.0417175292969 95.97984313964844 308.5319213867188 82.63824462890625 298.8492126464844 C 69.45429229736328 289.2809753417969 57.86804580688477 277.8012084960938 48.20134735107422 264.7289733886719 C 38.42089462280273 251.5029296875 30.82294654846191 236.9352722167969 25.61854553222656 221.4306793212891 C 20.23679542541504 205.3976745605469 17.50799560546875 188.6141204833984 17.50799560546875 171.5463256835938 C 17.50799560546875 160.8539733886719 18.59109497070313 150.1694793701172 20.727294921875 139.7896728515625 C 22.80879592895508 129.6754760742188 25.91469573974609 119.7267227172852 29.95879554748535 110.2198257446289 C 33.92999649047852 100.8842239379883 38.84554672241211 91.87967681884766 44.56889724731445 83.45622253417969 C 50.23889541625977 75.11127471923828 56.75069427490234 67.26387023925781 63.92349624633789 60.13197326660156 C 71.09669494628906 52.9996223449707 78.98974609375 46.52437210083008 87.38344573974609 40.88607406616211 C 95.85704803466797 35.19407272338867 104.9154968261719 30.30532264709473 114.3071441650391 26.35567283630371 C 123.8719482421875 22.33317375183105 133.8815002441406 19.24382400512695 144.0577392578125 17.17337417602539 C 154.5016937255859 15.04842376708984 165.2522888183594 13.97102355957031 176.0108947753906 13.97102355957031 C 186.768798828125 13.97102355957031 197.5186920166016 15.04842376708984 207.9620971679688 17.17337417602539 C 218.1378021240234 19.24382400512695 228.1468505859375 22.33317375183105 237.7112426757813 26.35562324523926 C 247.1024932861328 30.30532264709473 256.1605834960938 35.19402313232422 264.6339416503906 40.88602447509766 C 273.02734375 46.52437210083008 280.9201965332031 52.9996223449707 288.0932006835938 60.13192367553711 C 295.2658081054688 67.26387023925781 301.7774963378906 75.11127471923828 307.4473876953125 83.4561767578125 C 313.170654296875 91.87967681884766 318.0861511230469 100.8842239379883 322.0572814941406 110.2198257446289 C 326.1013488769531 119.7267227172852 329.2072448730469 129.6754760742188 331.2887573242188 139.7896728515625 C 333.4248962402344 150.1694793701172 334.5079956054688 160.8539733886719 334.5079956054688 171.5463256835938 C 334.5079956054688 187.9918212890625 331.97119140625 204.1928253173828 326.9679870605469 219.6992797851563 C 322.1276550292969 234.7012176513672 315.0431518554688 248.8757781982422 305.9113464355469 261.8291320800781 C 296.8969421386719 274.615966796875 286.0514526367188 285.9856262207031 273.6760864257813 295.6223754882813 C 261.1886901855469 305.3463134765625 247.37548828125 313.12255859375 232.6201934814453 318.7351379394531 L 232.6777954101563 319.0197143554688 C 206.4958038330078 328.5676879882813 187.4118957519531 350.64501953125 176.8121490478516 365.8036193847656 Z" stroke="none"/><path d="M 176.0108947753906 17.97103881835938 C 90.81768798828125 17.97103881835938 21.50799560546875 86.86459350585938 21.50799560546875 171.5463409423828 C 21.50799560546875 237.9505462646484 64.1177978515625 296.5523986816406 128.1050415039063 317.580078125 C 149.4361267089844 326.4208374023438 166.2235565185547 344.6867370605469 176.8226165771484 358.9669799804688 C 188.1805267333984 343.7876586914063 206.6452331542969 324.2737121582031 231.2556762695313 315.2807006835938 L 231.1981506347656 314.9963989257813 C 290.5984191894531 292.4021911621094 330.5079956054688 234.7540283203125 330.5079956054688 171.5463409423828 C 330.5079956054688 86.86459350585938 261.2008972167969 17.97103881835938 176.0108947753906 17.97103881835938 M 176.0108947753906 9.971038818359375 C 265.7551879882813 9.971038818359375 338.5079956054688 82.31106567382813 338.5079956054688 171.5463409423828 C 338.5079956054688 240.4435424804688 295.1234741210938 299.2401733398438 234.0423126220703 322.4737548828125 L 234.9939422607422 322.4396667480469 C 210.3436279296875 331.0695495605469 190.0099945068359 352.5874328613281 176.8077392578125 372.9710083007813 C 164.7806854248047 354.3943786621094 146.7859497070313 333.9823303222656 125.0420532226563 324.9704895019531 C 60.26904296875 303.7090148925781 13.50799560546875 243.0712890625 13.50799560546875 171.5463409423828 C 13.50799560546875 82.31106567382813 86.26077270507813 9.971038818359375 176.0108947753906 9.971038818359375 Z" stroke="none" fill="#00c7c9"/></g><path d="M60.213,186.029a4.707,4.707,0,0,1-4.7-4.708V116.508c-.219-.079-.434-.166-.648-.254-5.982,28.581-13.708,49.362-24.928,67.13a4.693,4.693,0,0,1-6.5,1.45,4.689,4.689,0,0,1-1.445-6.469c11.505-18.241,19.283-40.3,25.191-71.479a15.967,15.967,0,0,1-.609-4.327c0-7.66,5.181-14.036,11.79-14.518C58.417,88,93.3,79.229,109.658,53.052v-23.9s.136-.618.171-.762a4.615,4.615,0,0,1,3.648-3.539,10.845,10.845,0,0,1,4.5-.823,22.494,22.494,0,0,1,10.5,2.947A7.975,7.975,0,0,0,132.4,28.1a7.606,7.606,0,0,0,3.88-1.147,4.673,4.673,0,0,1,5.65.657,4.718,4.718,0,0,1,.9,5.6c-3.333,6.245-8.584,9.828-14.4,9.828a13.111,13.111,0,0,1-2.728-.285,13.736,13.736,0,0,0-2.733-.272,9.946,9.946,0,0,0-3.9.688v9.889C135.511,79.36,170.3,88,170.652,88.085c6.32.447,11.5,6.823,11.5,14.474a16.054,16.054,0,0,1-.609,4.336c5.917,31.187,13.691,53.247,25.187,71.474a4.7,4.7,0,1,1-7.944,5.01c-11.212-17.737-18.937-38.523-24.928-67.126-.21.088-.429.175-.648.254v64.813a4.707,4.707,0,0,1-4.7,4.708Zm103.594-9.407v-61.06a12.723,12.723,0,0,1-2.12-1.52,11.813,11.813,0,0,1-7.888,3.123,10.868,10.868,0,0,1-3.188-.482v59.939Zm-22.6,0V116.683a10.861,10.861,0,0,1-3.184.482,11.821,11.821,0,0,1-7.888-3.114,11.541,11.541,0,0,1-15.775,0,11.535,11.535,0,0,1-15.771,0,11.849,11.849,0,0,1-7.892,3.114,10.81,10.81,0,0,1-3.18-.482v59.939H99.357V149.5a15.6,15.6,0,0,1,31.2,0v27.118Zm-20.045,0V149.5a6.2,6.2,0,0,0-12.4,0v27.118Zm-43.047,0V116.683a10.868,10.868,0,0,1-3.188.482,11.8,11.8,0,0,1-7.888-3.123,12.555,12.555,0,0,1-2.124,1.515v61.064Zm83.566-76.857a4.683,4.683,0,0,1,4.642,3.977c.346,2.216,1.8,4.016,3.241,4.016,1.507,0,3.188-2.225,3.188-5.2s-1.682-5.2-3.188-5.2H59.157c-1.5,0-3.188,2.22-3.188,5.2s1.686,5.2,3.188,5.2c1.445,0,2.9-1.8,3.241-4.016a4.7,4.7,0,0,1,9.285,0c.346,2.212,1.8,4.016,3.245,4.016s2.9-1.8,3.241-4.016l.035-.228.416-1.117a4.423,4.423,0,0,1,.574-.858l.429-.5a4.5,4.5,0,0,1,.937-.648l.508-.28a4.591,4.591,0,0,1,3.486,0l.188.074.394.241a4.88,4.88,0,0,1,.858.6l.131.123.337.425a4.236,4.236,0,0,1,.552.841l.07.145.18.539.1.228.1.451c.342,2.181,1.8,3.985,3.236,3.985s2.9-1.8,3.245-4.016a4.7,4.7,0,0,1,9.289,0c.35,2.216,1.8,4.016,3.245,4.016s2.895-1.8,3.241-4.016a4.7,4.7,0,0,1,9.285,0c.346,2.207,1.8,4.012,3.241,4.012s2.9-1.8,3.245-4.016a4.7,4.7,0,0,1,9.293-.009c.342,2.225,1.8,4.025,3.241,4.025s2.895-1.8,3.245-4.02l.035-.228.412-1.112a4.3,4.3,0,0,1,.547-.828,3.656,3.656,0,0,1,.469-.543,4.574,4.574,0,0,1,.872-.609l.569-.311a4.584,4.584,0,0,1,3.473,0l.188.074.355.219a4.556,4.556,0,0,1,.9.631l.118.109.293.355a5.991,5.991,0,0,1,.6.889l.07.153.25.683.131.508c.346,2.229,1.8,4.029,3.245,4.029s2.891-1.8,3.237-4.016A4.694,4.694,0,0,1,161.683,99.765ZM144.83,87.957a104.941,104.941,0,0,1-14.374-9.123,43.253,43.253,0,0,0,7.931,9.123Zm-18.99,0a83.073,83.073,0,0,1-6.775-10.384V87.957Zm-16.182,0V77.578a83.343,83.343,0,0,1-6.771,10.38Zm-19.318,0a43.192,43.192,0,0,0,7.931-9.127,104.818,104.818,0,0,1-14.387,9.127Z" transform="translate(47.738 54.971)" fill="#00c7c9"/></g></svg>