<?xml version="1.0" encoding="utf-8"?>
<!-- Generator: Adobe Illustrator 16.0.0, SVG Export Plug-In . SVG Version: 6.00 Build 0)  -->
<!DOCTYPE svg PUBLIC "-//W3C//DTD SVG 1.1//EN" "http://www.w3.org/Graphics/SVG/1.1/DTD/svg11.dtd">
<svg version="1.1" id="레이어_1" xmlns="http://www.w3.org/2000/svg" xmlns:xlink="http://www.w3.org/1999/xlink" x="0px"
	 y="0px" width="337.578px" height="379.199px" viewBox="0 0 337.578 379.199" enable-background="new 0 0 337.578 379.199"
	 xml:space="preserve">
<path fill="#00C7C9" d="M337.578,168.789C337.579,75.57,262.01-0.001,168.791-0.002C75.571-0.003,0.001,75.567,0,168.785
	c0,72.822,46.703,137.434,115.851,160.273c22.585,9.414,41.277,30.738,53.769,50.143c13.713-21.293,34.834-43.77,60.438-52.787
	l-0.988,0.037C294.415,301.459,337.573,238.75,337.578,168.789z"/>
<g display="none">
	<path display="inline" fill="#FFFFFF" d="M182.76,67.885c-4.485-0.675-9.014-1.015-13.548-1.005
		c-45.277,0.32-83.838,32.991-91.594,77.598c-6.989,43.505,17.737,85.891,59.046,101.227c0.957,0.208,1.868,0.582,2.701,1.094
		c3.962,2.485,5.166,7.719,2.681,11.682c-3.159,5.855-6.308,11.779-12.188,22.374c-0.651,1.156-0.99,2.444-0.976,3.767
		c0.039,4.12,3.411,7.422,7.531,7.382c1.646-0.02,3.252-0.503,4.638-1.399l80.239-55.476c20.178-13.898,33.972-35.268,38.335-59.375
		c0.156-0.858,0.299-1.72,0.433-2.583C267.785,122.754,233.178,75.618,182.76,67.885z M225.987,169.623
		c-2.726,15.188-11.419,28.653-24.139,37.385l-32.765,22.651c-4.942-7.552-12.271-13.238-20.817-16.146
		c-25.82-9.758-41.227-36.33-36.875-63.589v0.005c5.155-27.984,29.359-48.432,57.811-48.831c2.804-0.004,5.603,0.212,8.373,0.641
		c15.549,2.322,29.48,10.886,38.569,23.716C225.307,138.224,228.861,154.177,225.987,169.623z"/>
	<path display="inline" fill="#FFFFFF" d="M149.75,139.984c-0.479-1.873-1.661-3.494-3.302-4.514
		c-3.518-2.183-8.136-1.109-10.324,2.405c-8.428,12.892-8.448,29.546-0.05,42.46c7.206,11.09,19.527,17.772,32.749,17.772h0.039
		c10.331,0.01,20.242-4.092,27.535-11.415c1.873-1.863,3.554-3.922,5.012-6.131c-14.08-0.738-27.382-6.675-37.347-16.651
		C157.384,157.248,152.464,149.022,149.75,139.984z"/>
</g>
<g transform="translate(-21.27 -21.27)" display="none">
	<path display="inline" fill="#FFFFFF" d="M121.281,278.179c-3.762,0.033-7.38-1.437-10.052-4.083
		c-5.69-5.691-5.404-15.239,0.643-21.282l48.944-48.954c-2.332-2.201-5.031-4.782-6.54-6.299
		c-39.415-39.409-46.111-62.789-44.786-75.465c0.564-5.433,4.19-8.292,7.536-8.714c3.203-0.424,6.417,0.691,8.669,3.01
		l61.282,61.311l9.188-9.188c-5.003-6.852-8.022-16.495,4.08-28.636l32.016-32.007c1.776-1.738,4.625-1.708,6.364,0.068
		c1.713,1.75,1.713,4.549-0.002,6.298l-32.009,32.005c-8.292,8.321-6.86,13.115-1.046,19.556c1.606,1.776,1.539,4.5-0.155,6.194
		l-15.257,15.259h-0.002l-10.282,10.286c-1.807,1.707-4.654,1.625-6.361-0.181c-1.639-1.735-1.638-4.448,0-6.18l7.102-7.102
		l-61.28-61.318c-0.194-0.221-0.454-0.374-0.741-0.438c-0.079,0.232-0.131,0.473-0.155,0.717
		c-0.732,7.069,1.905,27.86,42.203,68.164c2.286,2.291,7.619,7.342,9.664,9.216c0.036,0.03,0.071,0.062,0.102,0.099
		c0.352,0.336,0.646,0.726,0.871,1.156l0,0l0.003,0.01c0.327,0.629,0.499,1.327,0.503,2.037v0.013
		c0.005,0.626-0.122,1.246-0.372,1.82l0,0l-0.003,0.007c-0.21,0.491-0.508,0.937-0.88,1.318l-0.078,0.077l-52.217,52.223
		c-2.492,2.491-2.782,6.413-0.643,8.559c2.152,2.127,6.067,1.846,8.555-0.642l54.357-54.363c0.05-0.053,0.099-0.102,0.147-0.15
		l8.417-8.408c1.754-1.756,4.602-1.756,6.359-0.001s1.758,4.603,0.002,6.36l-3.472,3.478c2.135,0.645,4.333,1.063,6.557,1.248
		c1.25,0.012,2.438,0.544,3.28,1.467l44.02,48.337c2.335,2.336,6.255,2.639,8.416,0.494c2.135-2.143,1.845-6.065-0.647-8.558
		l-55.491-55.494l-0.002-0.004l-0.004-0.004l-0.004-0.004l-0.009-0.009h-0.004l-0.004-0.003l-0.005-0.003l-0.007-0.008l-0.005-0.003
		l-0.008-0.009l-0.008-0.009v-0.004l-0.013-0.008l-0.008-0.012l0,0c-0.705-0.741-1.134-1.701-1.215-2.72l0,0l-0.004-0.013l0,0
		v-0.019l0,0v-0.013l0,0l-0.005-0.013v-0.016l0,0v-0.041l0,0l-0.002-0.007v-0.059l0,0v-0.016l-0.005-0.012v-0.348l0.005-0.012l0,0
		v-0.028l0,0v-0.012l0,0v-0.025l0,0l0.002-0.012l0,0v-0.016l0,0v-0.012l0,0v-0.028l0,0c0.075-1.044,0.513-2.031,1.236-2.787
		l0.008-0.009v-0.003l0.009-0.004l0.004-0.003l0.008-0.012l0.013-0.008l0.008-0.012l0.013-0.009l0.008-0.011l15.231-15.234
		c1.692-1.693,4.415-1.763,6.193-0.159c6.464,5.83,11.271,7.254,19.604-1.088l31.996-31.992c1.741-1.775,4.589-1.803,6.364-0.064
		c1.775,1.74,1.804,4.589,0.063,6.364c-0.021,0.022-0.043,0.044-0.065,0.065l-31.996,31.988
		c-12.154,12.166-21.816,9.138-28.678,4.126l-9.168,9.173l52.304,52.306c6.042,6.044,6.328,15.596,0.643,21.291
		c-5.699,5.687-15.243,5.397-21.286-0.655l-42.964-47.165c-3.934-0.57-7.795-1.56-11.521-2.951l-52.304,52.308
		C129.542,276.455,125.502,278.155,121.281,278.179z M237.729,165.009c-2.485-0.001-4.498-2.017-4.497-4.502
		c0.001-1.193,0.475-2.337,1.318-3.18l23.639-23.594c1.759-1.756,4.61-1.753,6.367,0.007c1.756,1.759,1.754,4.61-0.007,6.367l0,0
		l-23.637,23.589c-0.845,0.843-1.99,1.316-3.186,1.314H237.729z M224.788,152.065c-2.485-0.002-4.498-2.017-4.497-4.502
		c0-1.193,0.475-2.337,1.318-3.181l23.634-23.588c1.759-1.757,4.609-1.756,6.365,0.004c1.757,1.759,1.754,4.609-0.003,6.366l0,0
		l-23.635,23.588C227.125,151.594,225.98,152.067,224.788,152.065z"/>
	<path display="inline" fill="#FFFFFF" d="M248.389,128.492c-2.486-0.003-4.499-2.023-4.495-4.509
		c0.003-1.19,0.476-2.331,1.315-3.173c0.844-0.847,1.552-4.825-0.098-6.483c-0.974-0.774-2.21-1.133-3.445-1.003
		c-1.081-0.004-2.139,0.312-3.04,0.908c-1.756,1.759-4.606,1.762-6.365,0.005c-1.759-1.758-1.761-4.607-0.004-6.367l0,0
		c2.053-2.057,5.424-3.378,9.012-3.539c4.07-0.205,7.683,1.109,10.203,3.633c5.199,5.199,4.396,14.907,0.094,19.207
		C250.725,128.017,249.582,128.493,248.389,128.492z"/>
	<path display="inline" fill="#FFFFFF" d="M261.328,141.437c-2.484-0.002-4.497-2.018-4.496-4.502c0-1.193,0.474-2.337,1.318-3.18
		c0.867-0.872,1.591-4.799-0.099-6.489c-0.691-0.692-1.941-1.043-3.441-1.003c-1.079-0.001-2.137,0.315-3.039,0.909
		c-1.781,1.73-4.63,1.688-6.361-0.095c-1.691-1.744-1.694-4.517-0.003-6.263c2.049-2.058,5.42-3.379,9.008-3.539
		c4.07-0.173,7.684,1.105,10.203,3.629c5.195,5.199,4.394,14.912,0.09,19.215C263.665,140.963,262.522,141.438,261.328,141.437z"/>
	<path display="inline" fill="#FFFFFF" d="M274.273,154.376c-2.484-0.001-4.498-2.017-4.498-4.501c0-1.192,0.474-2.335,1.315-3.178
		c0.847-0.847,1.563-4.836-0.094-6.489c-1.69-1.693-5.618-0.961-6.489-0.09c-1.785,1.729-4.633,1.683-6.36-0.103
		c-1.692-1.745-1.689-4.518,0.003-6.262c4.295-4.3,14.013-5.106,19.212,0.094s4.394,14.904,0.094,19.207
		C276.613,153.901,275.467,154.376,274.273,154.376z"/>
</g>
<g transform="translate(-19.507 -19.666)" display="none">
	<path display="inline" fill="#FFFFFF" d="M169.78,276.946c-2.975-0.033-5.36-2.473-5.328-5.449
		c0.033-2.928,2.399-5.295,5.328-5.328h22.331c-20.27-9.596-34.001-32.449-34.001-57.639c0.003-2.975,2.414-5.383,5.388-5.387
		h99.521c2.152,0.012,4.083,1.32,4.89,3.314h1.542c7.988,0.01,14.461,6.484,14.469,14.473v6.43
		c0.002,11.541-9.354,20.898-20.896,20.904c-1.634-0.006-3.263-0.191-4.854-0.559c-0.585-0.131-1.153-0.297-1.715-0.479
		c-5.557,8.133-13.152,14.666-22.025,18.945h22.307c2.976,0.031,5.362,2.471,5.328,5.445c-0.032,2.93-2.398,5.297-5.328,5.328
		H169.78z M169.124,213.912c2.337,26.055,21.531,46.291,44.138,46.291c22.605,0,41.792-20.236,44.131-46.289L169.124,213.912z
		 M262.111,237.434c0.315,0.029,0.619,0.045,0.911,0.045c5.591,0,10.124-4.529,10.125-10.119v-0.002v-6.43
		c-0.003-2.041-1.656-3.695-3.697-3.697h-1.628C266.983,224.223,265.056,231.039,262.111,237.434z"/>
	<path display="inline" fill="#FFFFFF" d="M222.74,200.348c-1.033,0-2.045-0.299-2.913-0.86c-6.331-4.087-9.946-9.63-11.384-17.46
		c-1.277-7.516,0.876-15.21,5.873-20.97c0.771-0.896,1.74-1.964,2.734-3.051c1.168-1.278,2.271-2.489,3.096-3.486
		c2.914-3.595,2.61-8.816-0.701-12.049c-2.06-2.149-1.987-5.562,0.161-7.622c2.15-2.06,5.563-1.988,7.622,0.161
		c7.06,7.364,7.585,18.704,1.224,26.382c-0.942,1.142-2.21,2.525-3.448,3.88c-0.978,1.072-1.831,2.011-2.501,2.801
		c-2.868,3.296-4.134,7.69-3.46,12.007c0.889,4.831,2.867,7.927,6.623,10.347c2.502,1.616,3.22,4.954,1.604,7.455
		C226.277,199.42,224.57,200.348,222.74,200.348z"/>
	<path display="inline" fill="#FFFFFF" d="M248.378,200.348c-0.368,0-0.737-0.039-1.099-0.111
		c-7.529-1.572-13.885-6.791-16.576-13.627c-2.635-6.912-1.51-14.695,2.974-20.578c0.814-1.071,2.081-2.477,3.394-3.922
		c1.181-1.301,2.213-2.443,2.979-3.417c1.844-2.337,5.233-2.737,7.57-0.894c2.337,1.844,2.737,5.234,0.894,7.571
		c-0.947,1.196-2.22,2.61-3.459,3.981c-1.134,1.247-2.14,2.345-2.778,3.187c-2.229,2.881-2.812,6.708-1.542,10.121
		c1.359,3.448,4.79,6.203,8.737,7.024c2.914,0.604,4.787,3.457,4.183,6.37c-0.518,2.502-2.721,4.295-5.273,4.295H248.378z"/>
	<path display="inline" fill="#FFFFFF" d="M131.283,257.283c-2.748,0.008-5.059-2.059-5.36-4.789l-11.29-103.124h-4.628
		c-2.978-0.033-5.365-2.474-5.332-5.451c0.032-2.931,2.4-5.299,5.332-5.332h33.222l7.968-36.752c0.547-2.473,2.734-4.237,5.267-4.25
		h17.483c2.978,0.033,5.365,2.473,5.332,5.451c-0.033,2.931-2.401,5.3-5.332,5.332h-13.139l-6.548,30.219h50.488
		c2.978,0.032,5.365,2.473,5.332,5.451c-0.033,2.931-2.4,5.299-5.332,5.332h-4.632l-5.052,46.18c-0.3,2.731-2.608,4.8-5.356,4.798
		c-0.191,0-0.382-0.015-0.581-0.029c-2.96-0.328-5.099-2.988-4.783-5.949l4.928-44.999h-63.794l10.636,97.142h23.481
		c2.975,0,5.386,2.412,5.386,5.387s-2.412,5.385-5.386,5.385H131.283z"/>
</g>
<g transform="translate(-25.836 -20.765)" display="none">
	<path display="inline" fill="#FFFFFF" d="M130.193,277.828c-2.363,0-4.278-1.915-4.278-4.277c0-2.363,1.916-4.278,4.278-4.278
		h5.248V152.418h-5.248c-2.364-0.03-4.256-1.97-4.227-4.334c0.03-2.322,1.905-4.197,4.227-4.227h130.864
		c2.363,0.03,4.256,1.971,4.227,4.334c-0.029,2.321-1.904,4.197-4.227,4.226h-5.247v116.855h5.247c2.363,0,4.277,1.917,4.277,4.279
		c0,2.361-1.914,4.278-4.277,4.278l0,0L130.193,277.828z M247.258,269.272V152.418H144.001v116.855h36.539v-20.037
		c-0.004-8.331,6.747-15.088,15.078-15.091c8.33-0.003,15.087,6.747,15.091,15.078c0,0.004,0,0.01,0,0.013v20.037L247.258,269.272z
		 M202.157,269.272v-20.036c-0.002-3.607-2.929-6.529-6.537-6.527c-3.604,0.001-6.524,2.924-6.526,6.527v20.037L202.157,269.272z"/>
	<path display="inline" fill="#FFFFFF" d="M221.242,253.514c-2.36-0.003-4.272-1.918-4.273-4.278
		c-0.002-11.787-9.558-21.341-21.345-21.341c-11.786,0.001-21.34,9.555-21.341,21.341c-0.03,2.365-1.97,4.257-4.334,4.227
		c-2.322-0.029-4.197-1.904-4.226-4.227c-0.003-16.514,13.381-29.901,29.895-29.904c16.512-0.002,29.9,13.382,29.903,29.895
		c0,0.004,0,0.007,0,0.01C225.52,251.599,223.606,253.512,221.242,253.514z"/>
	<path display="inline" fill="#FFFFFF" d="M189.026,212.521c-2.361-0.004-4.274-1.92-4.273-4.281v-14.527
		c0-2.362,1.912-4.279,4.273-4.286h14.535c2.365,0.004,4.28,1.921,4.282,4.286v14.527c-0.002,2.363-1.918,4.279-4.282,4.281H189.026
		z M199.283,203.962v-5.973h-5.979v5.976L199.283,203.962z"/>
	<path display="inline" fill="#FFFFFF" d="M189.026,181.584c-2.359-0.003-4.272-1.917-4.273-4.278v-14.534
		c0.001-2.361,1.914-4.276,4.273-4.279h14.535c2.363,0.002,4.278,1.916,4.282,4.279v14.534c-0.005,2.363-1.921,4.276-4.283,4.278
		H189.026z M199.283,173.027v-5.974h-5.979v5.974H199.283z"/>
	<path display="inline" fill="#FFFFFF" d="M157.596,212.521c-2.363-0.002-4.278-1.918-4.278-4.281v-14.527
		c0-2.364,1.914-4.281,4.278-4.286h14.531c2.366,0.002,4.283,1.92,4.287,4.286v14.527c-0.002,2.365-1.921,4.281-4.287,4.281H157.596
		z M167.854,203.962v-5.973h-5.974v5.976L167.854,203.962z"/>
	<path display="inline" fill="#FFFFFF" d="M157.596,181.584c-2.362-0.001-4.276-1.916-4.278-4.278v-14.534
		c0.001-2.361,1.916-4.276,4.278-4.277h14.531c2.365,0,4.282,1.913,4.287,4.277v14.534c-0.005,2.364-1.922,4.278-4.287,4.278
		H157.596z M167.854,173.027v-5.974h-5.974v5.974H167.854z"/>
	<path display="inline" fill="#FFFFFF" d="M220.461,212.521c-2.364-0.002-4.278-1.918-4.278-4.281v-14.527
		c0-2.364,1.914-4.281,4.278-4.286h14.53c2.364,0.004,4.278,1.921,4.278,4.286v14.527c0.001,2.363-1.915,4.279-4.278,4.281H220.461z
		 M230.716,203.962v-5.973h-5.974v5.976L230.716,203.962z"/>
	<path display="inline" fill="#FFFFFF" d="M220.461,181.584c-2.361-0.001-4.276-1.916-4.278-4.278v-14.534
		c0.002-2.361,1.917-4.276,4.278-4.277h14.53c2.363,0.001,4.277,1.916,4.278,4.277v14.534c-0.001,2.362-1.915,4.276-4.278,4.278
		H220.461z M230.716,173.027v-5.974h-5.974v5.974H230.716z"/>
	<path display="inline" fill="#FFFFFF" d="M221.204,139.543c-1.439,0.001-2.608-1.166-2.609-2.606c0-0.147,0.012-0.294,0.036-0.44
		l1.146-6.663l-4.831-4.708c-1.032-1.012-1.051-2.669-0.039-3.702c0.397-0.405,0.915-0.67,1.477-0.756l6.691-0.97l2.987-6.055
		c0.696-1.294,2.311-1.779,3.604-1.083c0.457,0.246,0.832,0.621,1.079,1.078l2.987,6.056l6.681,0.97
		c1.426,0.203,2.418,1.524,2.215,2.95c-0.081,0.574-0.353,1.105-0.769,1.508l-4.832,4.709l1.141,6.655
		c0.158,0.974-0.237,1.956-1.027,2.548c-0.447,0.328-0.988,0.504-1.542,0.506c-0.434,0.002-0.86-0.106-1.241-0.313l-5.957-3.13
		l-5.976,3.141C222.05,139.437,221.631,139.543,221.204,139.543z"/>
	<path display="inline" fill="#FFFFFF" d="M206.148,133.606c-0.424,0.001-0.841-0.103-1.216-0.3l-9.312-4.899l-9.31,4.899
		c-0.375,0.197-0.791,0.3-1.215,0.3c-0.552,0-1.088-0.175-1.533-0.501c-0.805-0.588-1.206-1.583-1.036-2.565l1.776-10.353
		l-7.53-7.337c-1.034-1.007-1.055-2.663-0.048-3.697c0.401-0.412,0.929-0.68,1.498-0.762l10.407-1.511l4.657-9.43
		c0.694-1.291,2.304-1.775,3.595-1.082c0.458,0.247,0.834,0.623,1.081,1.082l4.649,9.43l10.411,1.512
		c1.426,0.204,2.418,1.525,2.214,2.951c-0.082,0.574-0.353,1.104-0.769,1.506l-7.531,7.336l1.78,10.366
		c0.178,0.98-0.226,1.977-1.036,2.557C207.235,133.432,206.698,133.607,206.148,133.606z"/>
	<path display="inline" fill="#FFFFFF" d="M155.646,139.543c-1.445-0.008-2.609-1.187-2.601-2.631
		c0.001-0.148,0.014-0.294,0.04-0.439l1.141-6.639l-4.838-4.708c-0.706-0.698-0.96-1.732-0.66-2.678
		c0.307-0.948,1.128-1.639,2.114-1.78l6.672-0.97l2.994-6.056c0.635-1.293,2.197-1.827,3.49-1.192
		c0.514,0.252,0.93,0.667,1.186,1.179l2.987,6.066l6.693,0.97c1.425,0.208,2.412,1.531,2.204,2.956
		c-0.083,0.573-0.355,1.101-0.771,1.503l-4.831,4.708l1.145,6.655c0.177,0.98-0.225,1.975-1.033,2.558
		c-0.806,0.583-1.873,0.66-2.753,0.197l-5.979-3.142l-5.974,3.142C156.493,139.44,156.072,139.544,155.646,139.543z"/>
</g>
<path display="none" fill="#FFFFFF" d="M112.251,242.574c-2.711-0.004-4.907-2.203-4.907-4.914v-67.669
	c-0.229-0.083-0.453-0.174-0.676-0.266c-6.247,29.84-14.313,51.537-26.027,70.089c-1.444,2.288-4.47,2.974-6.759,1.53
	c-0.009-0.006-0.018-0.011-0.027-0.018c-2.28-1.449-2.957-4.472-1.509-6.754c12.012-19.045,20.133-42.076,26.301-74.629
	c-0.417-1.47-0.63-2.99-0.633-4.518c0-7.997,5.409-14.654,12.31-15.158c0.055-0.041,36.475-9.2,53.554-36.53V78.785
	c0,0,0.142-0.645,0.178-0.795c0.416-1.883,1.914-3.336,3.81-3.695c1.486-0.617,3.087-0.91,4.696-0.859
	c3.853,0.11,7.618,1.167,10.965,3.078c1.24,0.739,2.651,1.145,4.094,1.175c1.435-0.026,2.836-0.44,4.054-1.198
	c1.896-1.132,4.314-0.85,5.899,0.686c1.58,1.522,1.964,3.904,0.942,5.844c-3.479,6.52-8.964,10.262-15.04,10.262
	c-0.958,0-1.913-0.099-2.85-0.298c-0.938-0.189-1.894-0.284-2.851-0.284c-1.391-0.035-2.774,0.208-4.07,0.718v10.325
	c17.171,27.463,53.495,36.48,53.86,36.572c6.599,0.466,12.008,7.124,12.008,15.113c-0.003,1.53-0.216,3.054-0.633,4.526
	c6.178,32.561,14.294,55.594,26.296,74.622c1.445,2.29,0.76,5.317-1.53,6.763c-2.291,1.444-5.317,0.759-6.764-1.532
	c-11.706-18.519-19.772-40.221-26.027-70.083c-0.219,0.09-0.447,0.183-0.675,0.266v67.671c0,2.711-2.195,4.911-4.907,4.914H112.251z
	 M220.41,232.754v-63.752c-0.789-0.451-1.531-0.982-2.213-1.584c-2.247,2.069-5.182,3.23-8.234,3.261
	c-1.129-0.001-2.251-0.172-3.329-0.503v62.581L220.41,232.754z M196.816,232.754v-62.581c-1.077,0.331-2.197,0.5-3.324,0.502
	c-3.053-0.028-5.986-1.187-8.235-3.25c-4.634,4.335-11.838,4.333-16.469-0.005c-4.632,4.34-11.834,4.341-16.467,0.005
	c-2.251,2.063-5.186,3.22-8.241,3.25c-1.125-0.001-2.244-0.171-3.319-0.502v62.581h12.36v-28.316
	c0.057-8.996,7.396-16.245,16.392-16.188c8.918,0.056,16.132,7.271,16.188,16.188v28.316H196.816z M175.889,232.754v-28.316
	c-0.036-3.575-2.963-6.443-6.538-6.408c-3.524,0.034-6.373,2.883-6.408,6.408v28.316H175.889z M130.943,232.754v-62.581
	c-1.079,0.332-2.2,0.5-3.329,0.502c-3.055-0.029-5.989-1.191-8.235-3.26c-0.682,0.602-1.426,1.133-2.217,1.583v63.755H130.943z
	 M218.193,152.509c2.42-0.007,4.481,1.759,4.848,4.152c0.36,2.314,1.879,4.193,3.383,4.193c1.573,0,3.33-2.322,3.33-5.428
	c0-3.104-1.757-5.427-3.33-5.427H111.149c-1.569,0-3.33,2.318-3.33,5.427s1.761,5.428,3.33,5.428c1.508,0,3.026-1.879,3.383-4.193
	c0.419-2.676,2.927-4.506,5.604-4.088c2.106,0.33,3.758,1.981,4.087,4.088c0.361,2.309,1.88,4.193,3.389,4.193
	c1.509,0,3.027-1.879,3.384-4.193l0.037-0.238l0.436-1.166c0.164-0.321,0.365-0.622,0.598-0.896l0.448-0.521
	c0.297-0.266,0.627-0.493,0.98-0.676l0.531-0.293c1.166-0.48,2.473-0.481,3.639-0.004l0.196,0.078l0.412,0.254
	c0.32,0.176,0.621,0.386,0.896,0.626l0.138,0.127l0.352,0.444c0.226,0.268,0.42,0.563,0.577,0.878l0.073,0.15l0.19,0.563
	l0.101,0.238l0.105,0.471c0.357,2.277,1.875,4.162,3.379,4.162c1.504,0,3.032-1.878,3.388-4.192c0.418-2.679,2.929-4.51,5.607-4.091
	c2.108,0.33,3.762,1.983,4.091,4.091c0.365,2.314,1.884,4.192,3.389,4.192c1.504,0,3.022-1.884,3.384-4.192
	c0.42-2.677,2.93-4.506,5.606-4.085c2.106,0.33,3.758,1.983,4.087,4.089c0.361,2.304,1.879,4.188,3.384,4.188
	c1.504,0,3.027-1.878,3.389-4.192c0.418-2.68,2.931-4.513,5.61-4.095c2.105,0.33,3.759,1.98,4.093,4.086
	c0.356,2.323,1.874,4.202,3.384,4.202s3.022-1.884,3.389-4.197l0.037-0.237l0.43-1.162c0.155-0.309,0.347-0.599,0.569-0.864
	c0.145-0.205,0.309-0.397,0.489-0.57c0.278-0.246,0.583-0.458,0.91-0.634l0.594-0.325c1.162-0.476,2.465-0.476,3.627,0l0.196,0.079
	l0.37,0.229c0.339,0.181,0.656,0.401,0.942,0.658l0.123,0.114l0.308,0.371c0.234,0.29,0.444,0.6,0.625,0.928l0.073,0.161
	l0.261,0.713l0.138,0.53c0.36,2.328,1.878,4.207,3.389,4.207c1.508,0,3.017-1.878,3.378-4.192
	C213.711,154.269,215.772,152.505,218.193,152.509z M200.599,140.184c-5.253-2.764-10.271-5.949-15.007-9.525
	c3.737,5.497,6.913,8.404,8.28,9.525H200.599z M180.771,140.184c-2.625-3.433-4.99-7.058-7.074-10.842v10.842H180.771z
	 M163.875,140.184v-10.839c-2.083,3.783-4.445,7.406-7.067,10.839H163.875z M143.705,140.184c1.367-1.121,4.55-4.033,8.282-9.529
	c-4.74,3.579-9.763,6.765-15.021,9.529H143.705z"/>
<g transform="translate(-25.908 -24.242)" display="none">
	<path display="inline" fill="#FFFFFF" d="M124.187,261.744c-2.639,0-4.779-2.138-4.782-4.777V147.586
		c0.002-2.638,2.144-4.775,4.782-4.773l0,0h36.565v-18.712c-0.006-13.6,11.015-24.631,24.616-24.637
		c13.601-0.006,24.631,11.015,24.637,24.616c0,0.007,0,0.014,0,0.021v18.712h36.584c2.635,0.002,4.771,2.138,4.772,4.773v18.142
		c0.087,2.637-1.98,4.846-4.617,4.932c-2.637,0.087-4.846-1.98-4.933-4.618c-0.003-0.104-0.003-0.209,0-0.314v-13.364h-31.807v5.705
		c0.002,2.651-2.146,4.803-4.797,4.806c-2.651,0.002-4.802-2.146-4.806-4.797c0-0.002,0-0.005,0-0.008v-5.706h-30.038v5.706
		c0,2.654-2.152,4.806-4.806,4.806c-2.654,0-4.806-2.152-4.806-4.806v-5.706h-31.806v99.828h41.099
		c2.638,0.002,4.774,2.145,4.771,4.783c-0.003,2.633-2.138,4.768-4.771,4.771H124.187z M200.402,142.813v-18.712
		c0-8.295-6.724-15.02-15.019-15.02s-15.019,6.725-15.019,15.02v18.712H200.402z"/>
	<path display="inline" fill="#FFFFFF" d="M187.379,270.864c-2.638-0.003-4.776-2.14-4.778-4.777v-25.754h-0.891
		c-2.633,0-4.77-2.131-4.777-4.764v-30.532c0.002-2.636,2.14-4.775,4.777-4.777h4.994c-2.218-8.684,1.923-17.738,9.942-21.74
		c9.434-4.676,20.87-0.82,25.548,8.613l3.782,7.625l3.79-7.625c3.21-6.513,9.855-10.624,17.117-10.588
		c2.922-0.004,5.805,0.673,8.42,1.978c8.021,4.001,12.169,13.053,9.958,21.74h5.134c2.637,0.005,4.771,2.142,4.773,4.778v30.531
		c-0.008,2.632-2.142,4.762-4.773,4.764H269.5v25.752c-0.003,2.635-2.137,4.771-4.773,4.777H187.379z M259.951,261.314V240.33
		h-20.079c-2.636,0-4.771-2.134-4.771-4.771c0-2.634,2.136-4.771,4.771-4.771c0,0,0,0,0.001,0h25.744v-20.982h-34.8v51.503
		L259.951,261.314z M221.277,261.314v-51.503h-34.795v20.983h25.749c2.635,0,4.771,2.135,4.771,4.771
		c0,2.633-2.136,4.771-4.77,4.771h-0.002h-20.081v20.982L221.277,261.314z M255.095,200.26c0.1-0.139,0.191-0.284,0.271-0.436
		c2.298-4.726,0.328-10.421-4.398-12.717c-4.676-2.273-10.311-0.372-12.652,4.268l-4.403,8.884H255.095z M218.043,200.26l-4.4-8.884
		c-1.604-3.25-4.921-5.304-8.546-5.29c-1.459-0.002-2.897,0.335-4.202,0.987c-4.699,2.338-6.624,8.037-4.303,12.743
		c0.08,0.157,0.176,0.304,0.286,0.442L218.043,200.26z"/>
</g>
<path display="none" fill="#FFFFFF" d="M170.784,253.555c-33.572,0-67.556-8.886-67.556-25.867c0-7.364,6.448-13.691,18.671-18.342
	V91.033l0.095-0.411c0.026-0.252,0.079-0.502,0.161-0.744c0.088-0.288,0.209-0.566,0.357-0.83c0.135-0.261,0.299-0.506,0.488-0.73
	c0.211-0.259,0.452-0.494,0.714-0.701l0.169-0.189l0.179-0.113c4.052-2.61,9.37-3.933,15.801-3.933
	c10.382,0,23.27,3.638,33.637,9.491c6.967,3.938,14.1,5.93,21.199,5.93c7.221,0,14.375-2.066,21.256-6.143
	c0.732-0.426,1.564-0.653,2.412-0.655c2.609-0.003,4.73,2.111,4.734,4.722c0,0.781-0.191,1.549-0.561,2.236
	c-10.205,19.166-25.838,30.16-42.896,30.16c-2.539,0.001-5.072-0.259-7.559-0.778c-4.279-0.881-8.637-1.325-13.005-1.323
	c-12.063,0-22.349,3.362-27.726,9.028v70.323c11.462-2.947,25.348-4.556,39.429-4.556c33.579,0,67.565,8.886,67.565,25.871
	S204.361,253.555,170.784,253.555z M121.899,219.494c-6.741,3.094-9.219,6.196-9.219,8.193c0,6.691,22.634,16.406,58.104,16.406
	s58.116-9.716,58.116-16.406c0-6.689-22.639-16.41-58.113-16.41c-14.548,0-28.472,1.712-39.429,4.837v3.332
	c2.719-0.588,5.491-0.878,8.271-0.865c8.581,0,17.738,2.392,17.738,9.106c0,6.717-9.158,9.103-17.738,9.103
	c-3.63,0-15.636-0.54-17.438-7.509c-0.203-0.506-0.303-1.048-0.29-1.594L121.899,219.494z M131.355,124.119
	c7.218-4.258,16.898-6.569,27.695-6.569c5.037-0.004,10.061,0.51,14.992,1.534c1.979,0.416,3.994,0.628,6.018,0.631
	c9.18,0,18.096-4.49,25.551-12.767c-3.582,0.829-7.248,1.248-10.926,1.251c-8.807,0-17.504-2.383-25.836-7.09
	c-9.137-5.161-19.847-8.242-28.65-8.242c-3.011-0.074-6.011,0.41-8.847,1.426L131.355,124.119z"/>
<g transform="translate(-27.543 -22.581)" display="none">
	<path display="inline" fill="#FFFFFF" d="M153.199,272.123c-0.438-0.003-0.875-0.065-1.297-0.187
		c-2.479-0.725-3.906-3.317-3.191-5.799l15.945-54.725c0.586-1.992,2.412-3.361,4.489-3.368c0.438,0,0.875,0.062,1.297,0.182
		c2.476,0.712,3.906,3.299,3.194,5.774c-0.003,0.008-0.005,0.017-0.007,0.024l-15.942,54.726
		C157.097,270.741,155.274,272.111,153.199,272.123z"/>
	<path display="inline" fill="#FFFFFF" d="M221.484,179.043c-1.663-0.005-3.2-0.89-4.039-2.327l-15.305-26.299
		c-1.297-2.23-0.543-5.09,1.689-6.388c2.229-1.298,5.089-0.542,6.387,1.688l13.446,23.096l23.277-7.121
		c2.464-0.76,5.075,0.62,5.836,3.083c0.001,0.005,0.003,0.011,0.005,0.016c0.743,2.467-0.638,5.071-3.095,5.841l-26.836,8.201
		C222.407,178.973,221.947,179.043,221.484,179.043z"/>
	<path display="inline" fill="#FFFFFF" d="M263.399,252.802c-2.256,0.002-4.19-1.614-4.588-3.835l-17.167-93.196
		c-0.471-2.536,1.203-4.973,3.738-5.444c0,0,0.001,0,0.002,0c0.279-0.055,0.563-0.083,0.847-0.083c2.261,0,4.198,1.616,4.602,3.84
		L268,247.289c0.472,2.526-1.193,4.956-3.719,5.428c-0.015,0.003-0.028,0.005-0.042,0.007
		C263.964,252.778,263.682,252.804,263.399,252.802z"/>
	<path display="inline" fill="#FFFFFF" d="M232.634,274.986c-2.254,0.007-4.19-1.605-4.591-3.824l-6.959-37.785l-40.416-22.687
		c-7.974-4.453-11.804-13.831-9.227-22.592l12.044-41.341c2.185-7.506,10.04-11.819,17.546-9.634
		c7.506,2.185,11.819,10.04,9.635,17.546l-13.563,46.555c-0.74,2.474-3.344,3.879-5.817,3.139c-2.448-0.732-3.854-3.293-3.158-5.751
		l13.562-46.562c0.734-2.559-0.748-5.227-3.307-5.959c-0.43-0.123-0.873-0.185-1.318-0.186c-2.129,0.012-3.999,1.419-4.6,3.463
		l-12.038,41.352c-1.358,4.581,0.647,9.49,4.824,11.812l42.322,23.769c1.209,0.681,2.053,1.862,2.306,3.225l7.356,39.944
		c0.464,2.537-1.211,4.973-3.745,5.447C233.208,274.967,232.921,274.991,232.634,274.986z"/>
	<g transform="translate(27.543 68.695)" display="inline">
		<path fill="#FFFFFF" d="M126.498,123.441c-8.539-0.003-15.459-6.927-15.456-15.466c0.001-1.459,0.208-2.91,0.615-4.311
			l8.476-29.109c1.303-4.488,5.027-7.857,9.623-8.703l13.079-2.434c0.513-0.096,1.034-0.146,1.556-0.148
			c4.659,0.011,8.427,3.797,8.416,8.457c-0.002,0.79-0.115,1.576-0.336,2.335l-11.151,38.25
			C139.374,118.884,133.352,123.406,126.498,123.441z M131.468,75.037c-1.129,0.206-2.042,1.036-2.354,2.14l-8.48,29.104
			c-0.906,3.101,0.762,6.371,3.805,7.456c0.616,0.22,1.266,0.332,1.919,0.329c2.735-0.002,5.157-1.77,5.991-4.375l10.726-36.795
			L131.468,75.037z"/>
	</g>
	<path display="inline" fill="#FFFFFF" d="M207.878,137.716c-9.704,0.004-17.572-7.859-17.575-17.562
		c-0.004-9.703,7.859-17.572,17.563-17.575s17.571,7.859,17.575,17.563c0,0.002,0,0.006,0,0.008
		C225.432,129.846,217.574,137.705,207.878,137.716z M207.878,111.926c-4.54,0.004-8.218,3.687-8.214,8.228
		c0.002,4.54,3.688,8.217,8.228,8.214c4.537-0.004,8.215-3.684,8.215-8.221C216.098,115.607,212.417,111.929,207.878,111.926z"/>
</g>
<g transform="translate(-21.772 -22.68)">
	<path fill="#FFFFFF" d="M224.023,145.069c-8.372,0.004-15.16-6.78-15.164-15.152c-0.004-8.371,6.781-15.16,15.151-15.164
		c8.372-0.003,15.16,6.78,15.164,15.152c0,0.002,0,0.005,0,0.007C239.164,138.277,232.387,145.056,224.023,145.069z
		 M224.023,123.666c-3.452,0-6.249,2.798-6.249,6.249s2.797,6.249,6.249,6.249c3.451,0,6.248-2.798,6.248-6.249v-0.001
		C230.267,126.464,227.472,123.669,224.023,123.666z"/>
	<path fill="#FFFFFF" d="M195.231,278.563c-4.848,0-9.789-2.218-12.802-4.299c-8.741-6.037-16.674-13.169-23.603-21.224
		c-13.645-15.729-21.984-31.02-23.47-43.057c-0.356-2.034,0.378-4.106,1.936-5.464c1.001-0.833,2.263-1.288,3.566-1.286
		c0.607-0.001,1.211,0.096,1.789,0.283c4.54,1.48,9.257,4.101,14.025,7.793c1.909,1.555,2.194,4.364,0.639,6.273
		c-1.499,1.838-4.175,2.181-6.089,0.781c-1.828-1.425-3.756-2.716-5.771-3.862c2.874,9.558,9.759,20.771,20.109,32.697
		c6.432,7.49,13.8,14.123,21.922,19.734c2.358,1.628,5.45,2.722,7.696,2.722c0.76,0.063,1.517-0.144,2.139-0.587
		c1.574-1.495,0.576-4.493-2.968-8.925c-1.556-1.904-1.272-4.71,0.632-6.269c1.904-1.557,4.71-1.274,6.27,0.631
		c0.02,0.023,0.038,0.048,0.057,0.073c9.104,11.379,5.236,18.017,2.127,20.966C201.203,277.591,198.255,278.675,195.231,278.563z"/>
	<path fill="#FFFFFF" d="M185.325,246.489c-1.429,0.001-2.772-0.683-3.612-1.84c-7.455-10.25-13.102-14.971-15.51-16.978
		c-1.921-1.542-2.229-4.349-0.688-6.269c1.542-1.921,4.348-2.229,6.268-0.688c0.034,0.026,0.067,0.055,0.099,0.08
		c4.14,3.452,9.831,8.693,17.042,18.617c1.447,1.991,1.005,4.778-0.987,6.227C187.178,246.193,186.263,246.491,185.325,246.489z"/>
	<path fill="#FFFFFF" d="M113.203,240.877c-1.596-0.003-3.07-0.854-3.869-2.235c-8.388-14.62-8.439-38.708-0.118-54.847
		c4.962-9.632,13.469-18.233,25.278-25.548c1.962-1.241,3.335-3.225,3.806-5.498c-0.89,0.254-1.812,0.387-2.738,0.393
		c-2.428-0.047-4.75-0.997-6.515-2.667c-2.728-2.302-3.948-5.93-3.168-9.413c0.89-3.835,4.004-6.827,8.325-8.009
		c2.488-0.688,5.059-1.038,7.64-1.042c5.85-0.033,11.545,1.869,16.203,5.409c6.156,4.692,9.831,11.691,9.839,18.73
		c0.018,7.729-2.62,13.244-4.94,18.117c-2.265,4.726-3.894,8.135-2.919,12.67c0.506,2.405-1.024,4.769-3.426,5.292
		c-0.309,0.067-0.624,0.101-0.941,0.101c-2.092-0.014-3.897-1.472-4.351-3.514c-1.609-7.514,1.156-13.29,3.592-18.396
		c2.105-4.401,4.087-8.554,4.087-14.252c-0.013-4.215-2.439-8.684-6.337-11.654c-3.08-2.357-6.855-3.626-10.733-3.609
		c-1.811,0.007-3.613,0.255-5.358,0.739c-1.168,0.32-1.89,0.961-1.996,1.424c-0.021,0.097-0.077,0.31,0.384,0.709
		c0.177,0.192,0.391,0.348,0.628,0.456c0.336-0.061,0.664-0.152,0.983-0.271c1.063-0.393,2.183-0.61,3.315-0.643
		c1.138-0.003,2.258,0.282,3.253,0.832c2.558,1.404,4.067,4.134,4.157,7.493c0.109,4.351-2.372,10.641-8.089,14.185
		c-10.266,6.358-17.897,13.983-22.059,22.059c-6.953,13.484-6.987,34.255-0.072,46.314c1.225,2.138,0.485,4.862-1.652,6.085
		C114.739,240.672,113.978,240.876,113.203,240.877z"/>
	<path fill="#FFFFFF" d="M214.821,250.308c-1.85,0-3.785-0.089-5.814-0.287c-2.451-0.228-4.255-2.399-4.028-4.852
		c0.213-2.281,2.117-4.03,4.408-4.048l0.501,0.035c1.723,0.161,3.393,0.247,4.975,0.247c5.814,0,10.352-1.121,13.485-3.329
		c7.096-5.001,13.981-7.432,21.05-7.432c8.198,0,16.969,3.338,26.807,10.203c2.019,1.405,2.516,4.182,1.11,6.201
		c-0.835,1.201-2.207,1.915-3.668,1.911l0,0c-0.91,0-1.798-0.28-2.544-0.802c-8.338-5.82-15.477-8.65-21.817-8.65
		c-5.178,0-10.052,1.807-15.804,5.862C228.815,248.649,222.543,250.308,214.821,250.308z"/>
	<path fill="#FFFFFF" d="M190.366,258.27c-0.408-0.001-0.813-0.055-1.208-0.162c-2.373-0.669-3.754-3.134-3.086-5.507
		c0.001-0.003,0.001-0.005,0.002-0.007l0.16-0.565c2.967-10.493,10.138-35.995,12.726-46.087c0.975-3.814-1.681-8.08-4.554-10.426
		c-6.193-5.029-8.257-13.143-5.135-20.181l12.111-26.479l-18.734-3.553c-1.294-0.238-2.415-1.043-3.055-2.194l-14.227-25.322
		c-1.206-2.146-0.444-4.862,1.7-6.069c0.668-0.371,1.42-0.567,2.186-0.569c1.611,0,3.099,0.868,3.892,2.27l13.205,23.518
		l22.315,4.237c0.158-0.079,0.32-0.146,0.486-0.203c1.309-0.462,2.685-0.697,4.072-0.696c5.361-0.018,10.109,3.466,11.703,8.586
		l16.102,15.759l30.463,0.316c2.454,0.018,4.43,2.021,4.413,4.476c0,0.009,0,0.018,0,0.027c-0.034,2.438-2.017,4.4-4.456,4.409
		l-32.301-0.328c-1.151-0.011-2.252-0.466-3.072-1.271L223.44,159.88l-13.479,29.602c-0.988,2.256-3.617,3.285-5.873,2.297
		c-2.256-0.987-3.285-3.617-2.297-5.872c0.018-0.042,0.037-0.084,0.057-0.126l14.516-31.843c0.709-1.64,0.022-3.55-1.566-4.366
		c-0.486-0.253-1.027-0.387-1.573-0.388c-1.348,0.001-2.568,0.794-3.119,2.024l-12.701,27.78c-1.455,3.278-0.404,7.152,2.631,9.617
		c4.793,3.911,9.659,11.374,7.563,19.539c-3.138,12.269-12.876,46.653-12.952,46.901
		C194.089,256.948,192.349,258.261,190.366,258.27z"/>
	<path fill="#FFFFFF" d="M159.48,232.641c-2.462-0.259-4.248-2.468-3.987-4.93c0.001-0.013,0.002-0.023,0.003-0.035l3.553-29.721
		c0.192-1.568,1.196-2.919,2.641-3.557l22.171-9.654c2.226-1.052,4.884-0.101,5.936,2.126c1.052,2.226,0.101,4.884-2.125,5.936
		c-0.085,0.041-0.171,0.078-0.258,0.113l-19.819,8.631l-3.249,27.186c-0.269,2.238-2.168,3.922-4.423,3.922L159.48,232.641z"/>
</g>
</svg>
