<?xml version="1.0" encoding="utf-8"?>
<!-- Generator: Adobe Illustrator 16.0.0, SVG Export Plug-In . SVG Version: 6.00 Build 0)  -->
<!DOCTYPE svg PUBLIC "-//W3C//DTD SVG 1.1//EN" "http://www.w3.org/Graphics/SVG/1.1/DTD/svg11.dtd">
<svg version="1.1" id="레이어_1" xmlns="http://www.w3.org/2000/svg" xmlns:xlink="http://www.w3.org/1999/xlink" x="0px"
	 y="0px" width="337.578px" height="379.199px" viewBox="0 0 337.578 379.199" enable-background="new 0 0 337.578 379.199"
	 xml:space="preserve">
<path fill="#00C7C9" d="M337.578,168.789C337.579,75.57,262.01-0.001,168.791-0.002C75.571-0.003,0.001,75.567,0,168.785
	c0,72.822,46.703,137.434,115.851,160.273c22.585,9.414,41.277,30.738,53.769,50.143c13.713-21.293,34.834-43.77,60.438-52.787
	l-0.988,0.037C294.415,301.459,337.573,238.75,337.578,168.789z"/>
<g display="none">
	<path display="inline" fill="#FFFFFF" d="M182.76,67.885c-4.485-0.675-9.014-1.015-13.548-1.005
		c-45.277,0.32-83.838,32.991-91.594,77.598c-6.989,43.505,17.737,85.891,59.046,101.227c0.957,0.208,1.868,0.582,2.701,1.094
		c3.962,2.485,5.166,7.719,2.681,11.682c-3.159,5.855-6.308,11.779-12.188,22.374c-0.651,1.156-0.99,2.444-0.976,3.767
		c0.039,4.12,3.411,7.422,7.531,7.382c1.646-0.02,3.252-0.503,4.638-1.399l80.239-55.476c20.178-13.898,33.972-35.268,38.335-59.375
		c0.156-0.858,0.299-1.72,0.433-2.583C267.785,122.754,233.178,75.618,182.76,67.885z M225.987,169.623
		c-2.726,15.188-11.419,28.653-24.139,37.385l-32.765,22.651c-4.942-7.552-12.271-13.238-20.817-16.146
		c-25.82-9.758-41.227-36.33-36.875-63.589v0.005c5.155-27.984,29.359-48.432,57.811-48.831c2.804-0.004,5.603,0.212,8.373,0.641
		c15.549,2.322,29.48,10.886,38.569,23.716C225.307,138.224,228.861,154.177,225.987,169.623z"/>
	<path display="inline" fill="#FFFFFF" d="M149.75,139.984c-0.479-1.873-1.661-3.494-3.302-4.514
		c-3.518-2.183-8.136-1.109-10.324,2.405c-8.428,12.892-8.448,29.546-0.05,42.46c7.206,11.09,19.527,17.772,32.749,17.772h0.039
		c10.331,0.01,20.242-4.092,27.535-11.415c1.873-1.863,3.554-3.922,5.012-6.131c-14.08-0.738-27.382-6.675-37.347-16.651
		C157.384,157.248,152.464,149.022,149.75,139.984z"/>
</g>
<g transform="translate(-21.27 -21.27)" display="none">
	<path display="inline" fill="#FFFFFF" d="M121.281,278.179c-3.762,0.033-7.38-1.437-10.052-4.083
		c-5.69-5.691-5.404-15.239,0.643-21.282l48.944-48.954c-2.332-2.201-5.031-4.782-6.54-6.299
		c-39.415-39.409-46.111-62.789-44.786-75.465c0.564-5.433,4.19-8.292,7.536-8.714c3.203-0.424,6.417,0.691,8.669,3.01
		l61.282,61.311l9.188-9.188c-5.003-6.852-8.022-16.495,4.08-28.636l32.016-32.007c1.776-1.738,4.625-1.708,6.364,0.068
		c1.713,1.75,1.713,4.549-0.002,6.298l-32.009,32.005c-8.292,8.321-6.86,13.115-1.046,19.556c1.606,1.776,1.539,4.5-0.155,6.194
		l-15.257,15.259h-0.002l-10.282,10.286c-1.807,1.707-4.654,1.625-6.361-0.181c-1.639-1.735-1.638-4.448,0-6.18l7.102-7.102
		l-61.28-61.318c-0.194-0.221-0.454-0.374-0.741-0.438c-0.079,0.232-0.131,0.473-0.155,0.717
		c-0.732,7.069,1.905,27.86,42.203,68.164c2.286,2.291,7.619,7.342,9.664,9.216c0.036,0.03,0.071,0.062,0.102,0.099
		c0.352,0.336,0.646,0.726,0.871,1.156l0,0l0.003,0.01c0.327,0.629,0.499,1.327,0.503,2.037v0.013
		c0.005,0.626-0.122,1.246-0.372,1.82l0,0l-0.003,0.007c-0.21,0.491-0.508,0.937-0.88,1.318l-0.078,0.077l-52.217,52.223
		c-2.492,2.491-2.782,6.413-0.643,8.559c2.152,2.127,6.067,1.846,8.555-0.642l54.357-54.363c0.05-0.053,0.099-0.102,0.147-0.15
		l8.417-8.408c1.754-1.756,4.602-1.756,6.359-0.001s1.758,4.603,0.002,6.36l-3.472,3.478c2.135,0.645,4.333,1.063,6.557,1.248
		c1.25,0.012,2.438,0.544,3.28,1.467l44.02,48.337c2.335,2.336,6.255,2.639,8.416,0.494c2.135-2.143,1.845-6.065-0.647-8.558
		l-55.491-55.494l-0.002-0.004l-0.004-0.004l-0.004-0.004l-0.009-0.009h-0.004l-0.004-0.003l-0.005-0.003l-0.007-0.008l-0.005-0.003
		l-0.008-0.009l-0.008-0.009v-0.004l-0.013-0.008l-0.008-0.012l0,0c-0.705-0.741-1.134-1.701-1.215-2.72l0,0l-0.004-0.013l0,0
		v-0.019l0,0v-0.013l0,0l-0.005-0.013v-0.016l0,0v-0.041l0,0l-0.002-0.007v-0.059l0,0v-0.016l-0.005-0.012v-0.348l0.005-0.012l0,0
		v-0.028l0,0v-0.012l0,0v-0.025l0,0l0.002-0.012l0,0v-0.016l0,0v-0.012l0,0v-0.028l0,0c0.075-1.044,0.513-2.031,1.236-2.787
		l0.008-0.009v-0.003l0.009-0.004l0.004-0.003l0.008-0.012l0.013-0.008l0.008-0.012l0.013-0.009l0.008-0.011l15.231-15.234
		c1.692-1.693,4.415-1.763,6.193-0.159c6.464,5.83,11.271,7.254,19.604-1.088l31.996-31.992c1.741-1.775,4.589-1.803,6.364-0.064
		c1.775,1.74,1.804,4.589,0.063,6.364c-0.021,0.022-0.043,0.044-0.065,0.065l-31.996,31.988
		c-12.154,12.166-21.816,9.138-28.678,4.126l-9.168,9.173l52.304,52.306c6.042,6.044,6.328,15.596,0.643,21.291
		c-5.699,5.687-15.243,5.397-21.286-0.655l-42.964-47.165c-3.934-0.57-7.795-1.56-11.521-2.951l-52.304,52.308
		C129.542,276.455,125.502,278.155,121.281,278.179z M237.729,165.009c-2.485-0.001-4.498-2.017-4.497-4.502
		c0.001-1.193,0.475-2.337,1.318-3.18l23.639-23.594c1.759-1.756,4.61-1.753,6.367,0.007c1.756,1.759,1.754,4.61-0.007,6.367l0,0
		l-23.637,23.589c-0.845,0.843-1.99,1.316-3.186,1.314H237.729z M224.788,152.065c-2.485-0.002-4.498-2.017-4.497-4.502
		c0-1.193,0.475-2.337,1.318-3.181l23.634-23.588c1.759-1.757,4.609-1.756,6.365,0.004c1.757,1.759,1.754,4.609-0.003,6.366l0,0
		l-23.635,23.588C227.125,151.594,225.98,152.067,224.788,152.065z"/>
	<path display="inline" fill="#FFFFFF" d="M248.389,128.492c-2.486-0.003-4.499-2.023-4.495-4.509
		c0.003-1.19,0.476-2.331,1.315-3.173c0.844-0.847,1.552-4.825-0.098-6.483c-0.974-0.774-2.21-1.133-3.445-1.003
		c-1.081-0.004-2.139,0.312-3.04,0.908c-1.756,1.759-4.606,1.762-6.365,0.005c-1.759-1.758-1.761-4.607-0.004-6.367l0,0
		c2.053-2.057,5.424-3.378,9.012-3.539c4.07-0.205,7.683,1.109,10.203,3.633c5.199,5.199,4.396,14.907,0.094,19.207
		C250.725,128.017,249.582,128.493,248.389,128.492z"/>
	<path display="inline" fill="#FFFFFF" d="M261.328,141.437c-2.484-0.002-4.497-2.018-4.496-4.502c0-1.193,0.474-2.337,1.318-3.18
		c0.867-0.872,1.591-4.799-0.099-6.489c-0.691-0.692-1.941-1.043-3.441-1.003c-1.079-0.001-2.137,0.315-3.039,0.909
		c-1.781,1.73-4.63,1.688-6.361-0.095c-1.691-1.744-1.694-4.517-0.003-6.263c2.049-2.058,5.42-3.379,9.008-3.539
		c4.07-0.173,7.684,1.105,10.203,3.629c5.195,5.199,4.394,14.912,0.09,19.215C263.665,140.963,262.522,141.438,261.328,141.437z"/>
	<path display="inline" fill="#FFFFFF" d="M274.273,154.376c-2.484-0.001-4.498-2.017-4.498-4.501c0-1.192,0.474-2.335,1.315-3.178
		c0.847-0.847,1.563-4.836-0.094-6.489c-1.69-1.693-5.618-0.961-6.489-0.09c-1.785,1.729-4.633,1.683-6.36-0.103
		c-1.692-1.745-1.689-4.518,0.003-6.262c4.295-4.3,14.013-5.106,19.212,0.094s4.394,14.904,0.094,19.207
		C276.613,153.901,275.467,154.376,274.273,154.376z"/>
</g>
<g transform="translate(-19.507 -19.666)">
	<path fill="#FFFFFF" d="M169.78,276.946c-2.975-0.033-5.36-2.473-5.328-5.449c0.033-2.928,2.399-5.295,5.328-5.328h22.331
		c-20.27-9.596-34.001-32.449-34.001-57.639c0.003-2.975,2.414-5.383,5.388-5.387h99.521c2.152,0.012,4.083,1.32,4.89,3.314h1.542
		c7.988,0.01,14.461,6.484,14.469,14.473v6.43c0.002,11.541-9.354,20.898-20.896,20.904c-1.634-0.006-3.263-0.191-4.854-0.559
		c-0.585-0.131-1.153-0.297-1.715-0.479c-5.557,8.133-13.152,14.666-22.025,18.945h22.307c2.976,0.031,5.362,2.471,5.328,5.445
		c-0.032,2.93-2.398,5.297-5.328,5.328H169.78z M169.124,213.912c2.337,26.055,21.531,46.291,44.138,46.291
		c22.605,0,41.792-20.236,44.131-46.289L169.124,213.912z M262.111,237.434c0.315,0.029,0.619,0.045,0.911,0.045
		c5.591,0,10.124-4.529,10.125-10.119v-0.002v-6.43c-0.003-2.041-1.656-3.695-3.697-3.697h-1.628
		C266.983,224.223,265.056,231.039,262.111,237.434z"/>
	<path fill="#FFFFFF" d="M222.74,200.348c-1.033,0-2.045-0.299-2.913-0.86c-6.331-4.087-9.946-9.63-11.384-17.46
		c-1.277-7.516,0.876-15.21,5.873-20.97c0.771-0.896,1.74-1.964,2.734-3.051c1.168-1.278,2.271-2.489,3.096-3.486
		c2.914-3.595,2.61-8.816-0.701-12.049c-2.06-2.149-1.987-5.562,0.161-7.622c2.15-2.06,5.563-1.988,7.622,0.161
		c7.06,7.364,7.585,18.704,1.224,26.382c-0.942,1.142-2.21,2.525-3.448,3.88c-0.978,1.072-1.831,2.011-2.501,2.801
		c-2.868,3.296-4.134,7.69-3.46,12.007c0.889,4.831,2.867,7.927,6.623,10.347c2.502,1.616,3.22,4.954,1.604,7.455
		C226.277,199.42,224.57,200.348,222.74,200.348z"/>
	<path fill="#FFFFFF" d="M248.378,200.348c-0.368,0-0.737-0.039-1.099-0.111c-7.529-1.572-13.885-6.791-16.576-13.627
		c-2.635-6.912-1.51-14.695,2.974-20.578c0.814-1.071,2.081-2.477,3.394-3.922c1.181-1.301,2.213-2.443,2.979-3.417
		c1.844-2.337,5.233-2.737,7.57-0.894c2.337,1.844,2.737,5.234,0.894,7.571c-0.947,1.196-2.22,2.61-3.459,3.981
		c-1.134,1.247-2.14,2.345-2.778,3.187c-2.229,2.881-2.812,6.708-1.542,10.121c1.359,3.448,4.79,6.203,8.737,7.024
		c2.914,0.604,4.787,3.457,4.183,6.37c-0.518,2.502-2.721,4.295-5.273,4.295H248.378z"/>
	<path fill="#FFFFFF" d="M131.283,257.283c-2.748,0.008-5.059-2.059-5.36-4.789l-11.29-103.124h-4.628
		c-2.978-0.033-5.365-2.474-5.332-5.451c0.032-2.931,2.4-5.299,5.332-5.332h33.222l7.968-36.752c0.547-2.473,2.734-4.237,5.267-4.25
		h17.483c2.978,0.033,5.365,2.473,5.332,5.451c-0.033,2.931-2.401,5.3-5.332,5.332h-13.139l-6.548,30.219h50.488
		c2.978,0.032,5.365,2.473,5.332,5.451c-0.033,2.931-2.4,5.299-5.332,5.332h-4.632l-5.052,46.18c-0.3,2.731-2.608,4.8-5.356,4.798
		c-0.191,0-0.382-0.015-0.581-0.029c-2.96-0.328-5.099-2.988-4.783-5.949l4.928-44.999h-63.794l10.636,97.142h23.481
		c2.975,0,5.386,2.412,5.386,5.387s-2.412,5.385-5.386,5.385H131.283z"/>
</g>
</svg>
