<?xml version="1.0" encoding="utf-8"?>
<!-- Generator: Adobe Illustrator 16.0.0, SVG Export Plug-In . SVG Version: 6.00 Build 0)  -->
<!DOCTYPE svg PUBLIC "-//W3C//DTD SVG 1.1//EN" "http://www.w3.org/Graphics/SVG/1.1/DTD/svg11.dtd">
<svg version="1.1" id="레이어_1" xmlns="http://www.w3.org/2000/svg" xmlns:xlink="http://www.w3.org/1999/xlink" x="0px"
	 y="0px" width="337.578px" height="379.199px" viewBox="0 0 337.578 379.199" enable-background="new 0 0 337.578 379.199"
	 xml:space="preserve">
<path fill="#00C7C9" d="M337.578,168.789c0.001-93.22-75.568-168.79-168.788-168.791C75.571-0.003,0.001,75.566,0,168.785
	c0,72.823,46.703,137.434,115.851,160.274c22.585,9.414,41.277,30.738,53.769,50.143c13.713-21.293,34.834-43.77,60.438-52.787
	l-0.988,0.037C294.415,301.459,337.573,238.75,337.578,168.789z"/>
<g>
	<path fill="#FFFFFF" d="M182.76,67.885c-4.485-0.675-9.014-1.015-13.548-1.005c-45.277,0.32-83.838,32.991-91.594,77.598
		c-6.989,43.505,17.737,85.891,59.046,101.227c0.957,0.208,1.868,0.582,2.701,1.094c3.962,2.485,5.166,7.719,2.681,11.682
		c-3.159,5.855-6.308,11.779-12.188,22.374c-0.651,1.156-0.99,2.444-0.976,3.767c0.039,4.12,3.411,7.422,7.531,7.382
		c1.646-0.02,3.252-0.503,4.638-1.399l80.239-55.476c20.178-13.898,33.972-35.268,38.335-59.375c0.156-0.858,0.299-1.72,0.433-2.583
		C267.785,122.754,233.178,75.618,182.76,67.885z M225.987,169.623c-2.726,15.188-11.419,28.653-24.139,37.385l-32.765,22.651
		c-4.942-7.552-12.271-13.238-20.817-16.146c-25.82-9.758-41.227-36.33-36.875-63.589v0.005
		c5.155-27.984,29.359-48.432,57.811-48.831c2.804-0.004,5.603,0.212,8.373,0.641c15.549,2.322,29.48,10.886,38.569,23.716
		C225.307,138.224,228.861,154.177,225.987,169.623z"/>
	<path fill="#FFFFFF" d="M149.75,139.984c-0.479-1.873-1.661-3.494-3.302-4.514c-3.518-2.183-8.136-1.109-10.324,2.405
		c-8.428,12.892-8.448,29.546-0.05,42.46c7.206,11.09,19.527,17.772,32.749,17.772h0.039c10.331,0.01,20.242-4.092,27.535-11.415
		c1.873-1.863,3.554-3.922,5.012-6.131c-14.08-0.738-27.382-6.675-37.347-16.651C157.384,157.248,152.464,149.022,149.75,139.984z"
		/>
</g>
</svg>
