<?xml version="1.0" encoding="UTF-8"?>
<svg width="16px" height="16px" viewBox="0 0 16 16" version="1.1" xmlns="http://www.w3.org/2000/svg" xmlns:xlink="http://www.w3.org/1999/xlink">
    <title>ic-arrow-down-grey</title>
    <defs>
        <polygon id="path-1" points="0 0.000387339753 11.7025341 0.000387339753 11.7025341 7.00102 0 7.00102"></polygon>
    </defs>
    <g id="ic-arrow-down-grey" stroke="none" stroke-width="1" fill="none" fill-rule="evenodd">
        <g id="Group-3" transform="translate(2.000000, 4.500000)">
            <mask id="mask-2" fill="white">
                <use xlink:href="#path-1"></use>
            </mask>
            <g id="Clip-2"></g>
            <path d="M0.0005,1.15042 C0.0005,1.20342 0.0215,1.25442 0.0605,1.29242 L5.7135,6.94542 C5.7485,6.98142 5.7975,7.00242 5.8495,7.00145417 C5.9045,7.00145417 5.9575,6.97842 5.9965,6.93842 L11.6415,1.29542 C11.6815,1.25542 11.7035,1.20242 11.7025341,1.14542 C11.7035,1.09242 11.6825,1.04142 11.6445,1.00342 L10.7025,0.06142 C10.6635,0.02142 10.6095,-0.00058 10.5545,0.000387339753 C10.5005,0.000387339753 10.4485,0.02042 10.4105,0.05842 L5.8515,4.61942 L1.2945,0.06142 C1.2545,0.02142 1.2005,-0.00058 1.1455,0.000387339753 C1.0915,0.000387339753 1.0405,0.02142 1.0035,0.05842 L0.0625,1.00042 C0.0215,1.03942 -0.0005,1.09242 -0.0005,1.14942 L0.0005,1.15042 Z" id="Fill-1" fill="#AAAAAA" mask="url(#mask-2)"></path>
        </g>
    </g>
</svg>