<?xml version="1.0" encoding="UTF-8"?>
<svg width="20px" height="20px" viewBox="0 0 20 20" version="1.1" xmlns="http://www.w3.org/2000/svg" xmlns:xlink="http://www.w3.org/1999/xlink">
    <title>ic-arrow-right-white</title>
    <g id="ic-arrow-right-white" stroke="none" stroke-width="1" fill="none" fill-rule="evenodd">
        <path d="M13.8340235,18.669 C13.7540235,18.669 13.6770235,18.637 13.6200235,18.58 L5.08502347,10.045 C5.03002347,9.991 4.99902347,9.917 5,9.84 C5,9.756 5.03402347,9.675 5.09402347,9.616 L13.6160235,1.094 C13.6750235,1.034 13.7560235,1 13.8400235,1 C13.9210235,1 13.9980235,1.031 14.0550235,1.089 L15.4770235,2.51 C15.5360235,2.569 15.5700235,2.649 15.5700235,2.734 C15.5700235,2.815 15.5380235,2.893 15.4810235,2.949 L8.59602347,9.834 L15.4770235,16.714 C15.5360235,16.773 15.5700235,16.854 15.5700235,16.939 C15.5700235,17.019 15.5380235,17.097 15.4810235,17.153 L14.0610235,18.574 C14.0010235,18.635 13.9210235,18.668 13.8360235,18.668 L13.8340235,18.669 Z" id="Fill-1" fill="#FFFFFF" transform="translate(10.285012, 9.834500) scale(-1, 1) translate(-10.285012, -9.834500) "></path>
    </g>
</svg>