<?xml version="1.0" encoding="UTF-8"?>
<svg width="24px" height="24px" viewBox="0 0 24 24" version="1.1" xmlns="http://www.w3.org/2000/svg" xmlns:xlink="http://www.w3.org/1999/xlink">
    <title>ic-bell</title>
    <g id="ic-bell" stroke="none" stroke-width="1" fill="none" fill-rule="evenodd">
        <path d="M12.0813,22.3509624 C13.5153,22.3469624 14.6753,21.1839624 14.6753,19.7499624 L9.4863,19.7499624 C9.4863,21.1839624 10.6473,22.3469624 12.0813,22.3509624 L12.0813,22.3509624 Z M5.7353,16.5119624 C6.5963,15.3769624 7.5363,13.4969624 7.5423,10.0459624 L7.5423,10.0229624 C7.5053,7.51396241 9.5083,5.45096241 12.0163,5.41396241 C14.5243,5.37596241 16.5883,7.37896241 16.6253,9.88796241 L16.6253,10.0229624 L16.6253,10.0459624 C16.6253,13.4969624 17.5693,15.3769624 18.4313,16.5119624 L5.7353,16.5119624 Z M20.8143,16.2799624 C20.0313,15.4379624 18.5653,14.1709624 18.5653,10.0229624 C18.5693,6.95296241 16.3933,4.31196241 13.3783,3.73096241 L13.3783,2.88896241 C13.4273,2.17196241 12.8863,1.55196241 12.1693,1.50296241 C11.4533,1.45496241 10.8323,1.99596241 10.7843,2.71196241 C10.7793,2.77096241 10.7793,2.82996241 10.7843,2.88896241 L10.7843,3.73396241 C7.7703,4.31596241 5.5963,6.95496241 5.5983,10.0229624 C5.5983,14.1699624 4.1323,15.4379624 3.3493,16.2799624 C3.1233,16.5169624 2.9983,16.8319624 3.00027637,17.1599624 C3.00027637,17.8769624 3.5823,18.4589624 4.3003,18.4589624 L19.8613,18.4589624 C20.5803,18.4589624 21.1623235,17.8769624 21.1623235,17.1599624 C21.1643,16.8319624 21.0383,16.5169624 20.8123,16.2799624 L20.8143,16.2799624 Z" id="Fill-1" fill="#555555"></path>
    </g>
</svg>