<?xml version="1.0" encoding="UTF-8"?>
<svg width="24px" height="24px" viewBox="0 0 24 24" version="1.1" xmlns="http://www.w3.org/2000/svg" xmlns:xlink="http://www.w3.org/1999/xlink">
    <title>ic-camera-white</title>
    <g id="ic-camera-white" stroke="none" stroke-width="1" fill="none" fill-rule="evenodd">
        <path d="M15.331,13.275 C15.331,15.13 13.827,16.634 11.973,16.634 C10.117,16.634 8.613,15.13 8.613,13.275 C8.613,11.42 10.117,9.916 11.973,9.916 C13.825,9.919 15.327,11.42 15.331,13.272 L15.331,13.275 Z M16.553,13.275 C16.553,10.745 14.502,8.694 11.973,8.694 C9.442,8.694 7.392,10.745 7.392,13.275 C7.392,15.805 9.442,17.856 11.973,17.856 C14.503,17.854 16.553,15.802 16.553,13.272 L16.553,13.275 Z M21.744,7.775 L21.744,18.769 C21.743,19.78 20.924,20.599 19.912,20.6 L4.032,20.6 C3.021,20.599 2.201,19.78 2.2,18.769 L2.2,7.775 C2.201,6.763 3.02,5.944 4.032,5.943 L7.392,5.943 L7.861,4.687 C8.129,3.973 8.812,3.5 9.575,3.5 L14.366,3.5 C15.129,3.5 15.812,3.973 16.08,4.687 L16.553,5.943 L19.912,5.943 C20.924,5.944 21.743,6.763 21.744,7.775 L21.744,7.775 Z" id="Fill-1" fill="#FFFFFF"></path>
    </g>
</svg>