<?xml version="1.0" encoding="UTF-8"?>
<svg width="20px" height="20px" viewBox="0 0 20 20" version="1.1" xmlns="http://www.w3.org/2000/svg" xmlns:xlink="http://www.w3.org/1999/xlink">
    <title>ic-call</title>
    <defs>
        <polygon id="path-1" points="0 0 19.9998 0 19.9998 19.9997 0 19.9997"></polygon>
    </defs>
    <g id="ic-call" stroke="none" stroke-width="1" fill="none" fill-rule="evenodd">
        <g id="Group-6">
            <g id="Group-3">
                <mask id="mask-2" fill="white">
                    <use xlink:href="#path-1"></use>
                </mask>
                <g id="Clip-2"></g>
                <path d="M9.9998,-0.0003 C15.5228,-0.0003 19.9998,4.4777 19.9998,9.9997 C19.9998,15.5227 15.5228,19.9997 9.9998,19.9997 C4.4778,19.9997 -0.0002,15.5227 -0.0002,9.9997 C-0.0002,4.4777 4.4778,-0.0003 9.9998,-0.0003" id="Fill-1" fill="#EEEEEE" mask="url(#mask-2)"></path>
            </g>
            <path d="M14.6482,5.7634 L12.6762,5.3074 C12.4622,5.2584 12.2442,5.3684 12.1562,5.5704 L11.2462,7.6934 C11.1662,7.8794 11.2192,8.0964 11.3772,8.2244 L12.5252,9.1634 C11.8302,10.6394 10.6422,11.8264 9.1672,12.5234 L8.2272,11.3734 C8.0992,11.2164 7.8822,11.1624 7.6962,11.2424 L5.5732,12.1534 C5.3702,12.2414 5.2582,12.4604 5.3072,12.6764 L5.7632,14.6474 C5.8102,14.8544 5.9952,15.0004 6.2072,14.9994051 C11.0632,14.9994051 15.0002051,11.0634 15.0002051,6.2064 C15.0012,5.9944 14.8542,5.8104 14.6482,5.7634" id="Fill-4" fill="#999999"></path>
        </g>
    </g>
</svg>