<?xml version="1.0" encoding="UTF-8"?>
<svg width="20px" height="20px" viewBox="0 0 20 20" version="1.1" xmlns="http://www.w3.org/2000/svg" xmlns:xlink="http://www.w3.org/1999/xlink">
    <title>ic-comment-white</title>
    <g id="ic-comment-white" stroke="none" stroke-width="1" fill="none" fill-rule="evenodd">
        <path d="M10.0032318,14.5 C9.17223176,14.5 8.34623176,14.372 7.55323176,14.122 L6.84423176,13.899 L6.23523176,14.331 C5.68523176,14.722 5.07723176,15.027 4.43623176,15.236 C4.68023176,14.838 4.88823176,14.417 5.05723176,13.98 L5.38823176,13.103 L4.74423176,12.422 C3.97423176,11.642 3.52923176,10.596 3.50423176,9.5 C3.50423176,6.744 6.41923176,4.5 10.0042318,4.5 C13.5892318,4.5 16.5042318,6.743 16.5042318,9.5 C16.5042318,12.257 13.5872318,14.5 10.0032318,14.5 L10.0032318,14.5 Z M10.0032318,3 C5.58523176,3 2.00323176,5.909 2.00323176,9.5 C2.02523176,10.979 2.61723176,12.393 3.65623176,13.445 C3.30823176,14.285 2.81723176,15.06 2.20623176,15.732 C1.92123176,16.033 1.93323176,16.508 2.23223176,16.793 C2.37323176,16.927 2.56023176,17.001 2.75423176,17.00001 C4.31723176,16.977 5.83523176,16.472 7.10123176,15.553 C8.03823176,15.849 9.01723176,15.999 10.0002318,16 C14.4182318,16 18.0002318,13.091 18.0002318,9.5 C18.0002318,5.909 14.4212318,3 10.0032318,3 L10.0032318,3 Z M13.5032318,8.5 C12.9512318,8.5 12.5032318,8.947 12.5032318,9.5 C12.5032318,10.052 12.9512318,10.5 13.5032318,10.5 C14.0562318,10.5 14.5032318,10.052 14.5032318,9.5 C14.5032318,8.947 14.0562318,8.5 13.5032318,8.5 L13.5022318,8.5 L13.5032318,8.5 Z M10.0032318,8.5 C9.45123176,8.5 9.00323176,8.947 9.00323176,9.5 C9.00323176,10.052 9.45123176,10.5 10.0032318,10.5 C10.5562318,10.5 11.0032318,10.052 11.0032318,9.5 C11.0032318,8.947 10.5562318,8.5 10.0032318,8.5 L10.0032318,8.5 Z M6.50323176,8.5 C5.95123176,8.5 5.50323176,8.947 5.50323176,9.5 C5.50323176,10.052 5.95123176,10.5 6.50323176,10.5 C7.05623176,10.5 7.50323176,10.052 7.50323176,9.5 C7.50323176,8.947 7.05623176,8.5 6.50323176,8.5 L6.50323176,8.5 Z" id="Fill-1" fill="#FFFFFF"></path>
    </g>
</svg>