<?xml version="1.0" encoding="UTF-8"?>
<svg width="24px" height="24px" viewBox="0 0 24 24" version="1.1" xmlns="http://www.w3.org/2000/svg" xmlns:xlink="http://www.w3.org/1999/xlink">
    <title>ic-cross-white</title>
    <g id="ic-cross-white" stroke="none" stroke-width="1" fill="none" fill-rule="evenodd">
        <path d="M17.194786,18.7248246 L11.9465209,13.467612 L6.69825592,18.7248246 C6.65451209,18.7695626 6.5958556,18.7934527 6.53322239,18.7934527 C6.46860083,18.7934527 6.40596762,18.7675742 6.3622238,18.7208479 L5.26763395,17.6272522 C5.22289595,17.5835084 5.19903568,17.5238577 5.2,17.4612245 C5.19903568,17.3956088 5.2248843,17.3339697 5.27161066,17.2882376 L10.5546719,11.9962287 L5.26862813,6.70123732 C5.2248843,6.65749349 5.2,6.59784282 5.20102404,6.53520961 C5.2,6.47058805 5.22587848,6.40696067 5.27260484,6.36222266 L6.36620051,5.26862699 C6.40994434,5.22388899 6.47058919,5.19903454 6.53222822,5.2 C6.59784396,5.19903454 6.65948298,5.22587735 6.70422099,5.27260371 L11.9504977,10.5258396 L17.194786,5.27260371 C17.239524,5.22587735 17.301163,5.19903454 17.3667787,5.2 C17.4294119,5.19903454 17.4890626,5.22388899 17.5328064,5.26862699 L18.6264021,6.36222266 C18.6731285,6.40696067 18.7,6.47058805 18.6989771,6.53520961 C18.7,6.59784282 18.6751168,6.65749349 18.6303788,6.70123732 L13.344335,11.9962287 L18.6273963,17.2882376 C18.6741227,17.3339697 18.7009655,17.3956088 18.7,17.4612245 C18.7009655,17.5238577 18.676111,17.5835084 18.631373,17.6272522 L17.5377773,18.7208479 C17.4930393,18.7675742 17.4294119,18.7934527 17.3647904,18.7934527 C17.301163,18.794417 17.239524,18.7705568 17.194786,18.7248246" id="Fill-1" fill="#FFFFFF"></path>
    </g>
</svg>