<?xml version="1.0" encoding="UTF-8"?>
<svg width="16px" height="16px" viewBox="0 0 16 16" version="1.1" xmlns="http://www.w3.org/2000/svg" xmlns:xlink="http://www.w3.org/1999/xlink">
    <title>ic-clock</title>
    <defs>
        <polygon id="path-1" points="0 0 12.9999 0 12.9999 12.9994 0 12.9994"></polygon>
    </defs>
    <g id="ic-clock" stroke="none" stroke-width="1" fill="none" fill-rule="evenodd">
        <g id="Group-3" transform="translate(1.500000, 1.500000)">
            <mask id="mask-2" fill="white">
                <use xlink:href="#path-1"></use>
            </mask>
            <g id="Clip-2"></g>
            <path d="M8.1199,9.0064 L5.8949,7.3894 C5.8139,7.3294 5.7669,7.2354 5.7669,7.1354 L5.7669,2.8344 C5.7669,2.6604 5.9079,2.5204 6.0819,2.5204 L6.9209,2.5204 C7.0959,2.5204 7.2359,2.6604 7.2359,2.8344 L7.2359,6.5494 L8.9869,7.8224 C9.1269,7.9254 9.1579,8.1214 9.0569,8.2614 C9.0559,8.2624 9.0559,8.2624 9.0559,8.2634 L8.5619,8.9424 C8.4569,9.0814 8.2599,9.1104 8.1199,9.0064 L8.1199,9.0064 Z M6.4999,11.7414 C3.6049,11.7414 1.2579,9.3954 1.2579,6.4994 C1.2579,3.6054 3.6049,1.2584 6.4999,1.2584 C9.3949,1.2584 11.7419003,3.6054 11.7419003,6.4994 C11.7429,9.3944 9.3979,11.7404 6.5039,11.7414 L6.4999,11.7414 Z M6.4999,-0.0006 C2.9099,-0.0006 -0.0001,2.9094 -0.0001,6.4994 C-0.0001,10.0894 2.9099,12.9994 6.4999,12.9994 C10.0899,12.9994 12.9999,10.0894 12.9999,6.4994 C12.9999,2.9094 10.0899,-0.0006 6.4999,-0.0006 L6.4999,-0.0006 Z" id="Fill-1" fill="#999999" mask="url(#mask-2)"></path>
        </g>
    </g>
</svg>