<?xml version="1.0" encoding="UTF-8"?>
<svg width="16px" height="16px" viewBox="0 0 16 16" version="1.1" xmlns="http://www.w3.org/2000/svg" xmlns:xlink="http://www.w3.org/1999/xlink">
    <title>ic-camera</title>
    <g id="ic-camera" stroke="none" stroke-width="1" fill="none" fill-rule="evenodd">
        <path d="M10.3994108,8.99933479 C10.3994108,10.3284235 9.32177136,11.4060629 7.9926827,11.4060629 C6.66359403,11.4060629 5.58595458,10.3284235 5.58595458,8.99933479 C5.58595458,7.66891571 6.66359403,6.59127134 7.9926827,6.59127134 C9.32310178,6.58861541 10.4047325,7.66625487 10.4060629,8.99667395 L10.4060629,9.00199563 L10.3994108,8.99933479 Z M11.2748266,8.99933479 C11.2748266,7.18597358 9.8060439,5.7158605 7.9926827,5.7158605 C6.18065191,5.7158605 4.71186924,7.18597358 4.71186924,8.99933479 C4.71186924,10.8113656 6.18065191,12.2814796 7.9926827,12.2814796 C9.80737432,12.2828091 11.2774874,10.8140264 11.2801482,9.00199563 L11.2748266,8.99933479 Z M15,5.05996389 L15,12.9373753 C15,13.6624537 14.4132852,14.2491685 13.6868764,14.2491685 L2.31179321,14.2491685 C1.58804523,14.2491685 1.00133042,13.6637841 1,12.9400361 L1,5.05996389 C1,4.33488549 1.58671482,3.74817067 2.31179321,3.74817067 L4.72384301,3.74817067 L5.06043904,2.84880737 C5.25334981,2.33925687 5.73895277,2.00266084 6.28176376,2 L9.71424499,2 C10.2610472,2 10.7506415,2.33925687 10.9422218,2.85146821 L11.2814787,3.75083151 L13.6868764,3.75083151 C14.4119548,3.75083151 14.9986696,4.33621591 15,5.05996389 L15,5.05996389 Z" id="Fill-1" fill="#999999"></path>
    </g>
</svg>