<?xml version="1.0" encoding="UTF-8"?>
<svg width="20px" height="20px" viewBox="0 0 20 20" version="1.1" xmlns="http://www.w3.org/2000/svg" xmlns:xlink="http://www.w3.org/1999/xlink">
    <title>ic-email</title>
    <g id="ic-email" stroke="none" stroke-width="1" fill="none" fill-rule="evenodd">
        <path d="M3.50007742,14.5008556 L3.50007742,8.69998014 C4.21618617,9.27010529 5.23215312,10.0710423 6.77977657,11.2832981 C7.46333492,11.8208728 8.65882226,13.0084691 10.0012796,13.0005781 C11.3437369,12.9926871 12.5175239,11.8376412 13.2217962,11.2832981 C14.7694196,10.0710423 15.786373,9.27010529 16.5014953,8.69998014 L16.5014953,14.5008556 L3.50007742,14.5008556 Z M16.4995226,5.50017742 L16.4995226,6.77556118 C15.7991958,7.3466727 14.6816322,8.23342444 12.2936167,10.1035927 C11.766892,10.5178705 10.7242929,11.5121372 9.99930681,11.5003007 C9.27432068,11.5121372 8.23073521,10.513925 7.70499697,10.1035927 C5.31698143,8.22947894 4.19941778,7.34174082 3.49909104,6.77556118 L3.49909104,5.50017742 L16.4995226,5.50017742 Z M16.4995226,3.9999 L3.50007742,3.9999 C2.67152184,3.9999 1.9998,4.67162184 1.9998,5.50017742 L1.9998,14.5008556 C1.9998,15.3294111 2.67152184,16.001133 3.50007742,16.001133 L16.4995226,16.001133 C17.3280782,16.001133 17.9998,15.3294111 17.9998,14.5008556 L17.9998,5.50017742 C17.9998,4.67162184 17.3280782,3.9999 16.4995226,3.9999 L16.4995226,3.9999 Z" id="Fill-1" fill="#FFFFFF"></path>
    </g>
</svg>