<?xml version="1.0" encoding="UTF-8"?>
<svg width="24px" height="24px" viewBox="0 0 24 24" version="1.1" xmlns="http://www.w3.org/2000/svg" xmlns:xlink="http://www.w3.org/1999/xlink">
    <title>ic-gps</title>
    <g id="ic-gps" stroke="none" stroke-width="1" fill="none" fill-rule="evenodd">
        <path d="M12.002952,5.19042889 C8.24903838,5.19042889 5.205564,8.23935774 5.205564,11.999999 C5.205564,15.7616261 8.24903838,18.8095692 12.002952,18.8095692 C15.7568656,18.8095692 18.8003399,15.7616261 18.8003399,11.999999 L18.8003399,11.9990133 C18.797388,8.23935774 15.7558816,5.19141464 12.002952,5.18747163 L12.002952,5.19042889 Z M12.002952,23 C11.5316218,23.0009838 11.1478665,22.6194981 11.1468825,22.1463374 L11.1468825,22.1423944 L11.1468825,20.4764747 C7.13319617,20.0535874 3.96180338,16.8755251 3.5396726,12.8556312 L1.85311745,12.8556312 C1.38178728,12.8556312 1,12.4731597 1,12.0009848 C1,11.5297957 1.38178728,11.1463384 1.85311745,11.1463384 L3.5396726,11.1463384 C3.96081939,7.12545874 7.13319617,3.94641071 11.1468825,3.52450915 L11.1468825,1.8546464 C11.1468825,1.38345727 11.5296538,1 12,1 C12.4713302,1 12.8531175,1.38345727 12.8531175,1.8546464 L12.8531175,3.52450915 C16.8668038,3.94641071 20.0391806,7.12447299 20.4603274,11.1453526 L22.1468825,11.1453526 C22.6182127,11.1453526 23,11.5288099 23,12 C23,12.4721739 22.6182127,12.8546454 22.1468825,12.8546454 L20.4603274,12.8546454 C20.0381966,16.8755251 16.8668038,20.0526016 12.8531175,20.4754889 L12.8531175,22.1423944 C12.8541014,22.6145693 12.4742821,22.9970408 12.002952,23 L12.002952,23 Z" id="Fill-1" fill="#999999"></path>
        <path d="M15.5,11.9990232 C15.5009764,13.9321797 13.9331563,15.4990232 12.0009768,15.5 C10.0678205,15.5 8.50097729,13.9331566 8.5,12.0009768 C8.49902362,10.0678203 10.0668437,8.5 11.9990232,8.5 L12,8.5 C13.9331563,8.5 15.4990227,10.0658666 15.5,11.9990232" id="Fill-4" fill="#999999"></path>
    </g>
</svg>