<?xml version="1.0" encoding="UTF-8"?>
<svg width="16px" height="16px" viewBox="0 0 16 16" version="1.1" xmlns="http://www.w3.org/2000/svg" xmlns:xlink="http://www.w3.org/1999/xlink">
    <title>ic-hashtag</title>
    <defs>
        <polygon id="path-1" points="0 0.000183840033 10.932 0.000183840033 10.932 10.9409 0 10.9409"></polygon>
    </defs>
    <g id="ic-hashtag" stroke="none" stroke-width="1" fill="none" fill-rule="evenodd">
        <g id="Group-3" transform="translate(2.500000, 2.500000)">
            <mask id="mask-2" fill="white">
                <use xlink:href="#path-1"></use>
            </mask>
            <g id="Clip-2"></g>
            <path d="M4.6878,6.969 L3.9488,4.769 L6.2298,4.005 L6.9688,6.204 L4.6878,6.969 Z M10.8878,5.817 C10.7318,5.353 10.2298,5.103 9.7658,5.258 L8.6578,5.627 L7.9178,3.427 L9.0258,3.059 C9.4938,2.917 9.7568,2.423 9.6158,1.955 C9.4738,1.488 8.9798,1.223 8.5118,1.365 C8.4968,1.369 8.4798,1.375 8.4638,1.381 L7.3578,1.748 L6.9748,0.607 C6.8198,0.142 6.3178,-0.109 5.8528,0.046 C5.3878,0.2 5.1368,0.703 5.2918,1.168 L5.6748,2.314 L3.3968,3.074 L3.0138,1.927 C2.8588,1.462 2.3568,1.211 1.8918,1.365 C1.4268,1.521 1.1758,2.023 1.3308,2.488 L1.7128,3.634 L0.6078,4.002 C0.1428,4.156 -0.1092,4.658 0.0448,5.123 C0.0458,5.124 0.0458,5.125 0.0458,5.127 C0.1728,5.474 0.4978,5.711 0.8668,5.727 C1.0328,5.75 1.1598,5.688 2.2738,5.317 L3.0128,7.517 L1.9058,7.885 C1.4428,8.041 1.1928,8.54 1.3448,9.005 C1.4718,9.352 1.7948,9.589 2.1648,9.605 C2.3308,9.629 2.4578,9.566 3.5718,9.195 L3.9548,10.341 C4.1188,10.797 4.6138,11.044 5.0768,10.9 C5.5408,10.744 5.7918,10.243 5.6378,9.78 L5.2538,8.627 L7.5378,7.863 L7.9198,9.009 C8.0838,9.465 8.5798,9.712 9.0418,9.568 C9.5058,9.412 9.7568,8.912 9.6038,8.448 L9.2208,7.302 L10.3288,6.927 C10.7898,6.775 11.0398,6.278 10.8878,5.817 L10.8878,5.817 Z" id="Fill-1" fill="#999999" mask="url(#mask-2)"></path>
        </g>
    </g>
</svg>