<?xml version="1.0" encoding="UTF-8"?>
<svg width="16px" height="16px" viewBox="0 0 16 16" version="1.1" xmlns="http://www.w3.org/2000/svg" xmlns:xlink="http://www.w3.org/1999/xlink">
    <title>ic-heart-fill-color</title>
    <g id="ic-heart-fill-color" stroke="none" stroke-width="1" fill="none" fill-rule="evenodd">
        <path d="M13.2369407,3.03432931 C11.814656,1.86936686 9.74209917,2.02149254 8.49995074,3.38161622 L8.00012208,3.90304701 L7.49930367,3.38161622 C6.258145,2.01949089 4.18459842,1.86736521 2.76231372,3.03232765 C1.23907354,4.36342736 1.07081439,6.69034977 2.38620503,8.23062228 C2.42678518,8.27866197 2.46835509,8.32470001 2.51091476,8.36973721 L7.42309218,13.4999756 C7.72397913,13.8202402 8.2257873,13.8352526 8.5425104,13.5310013 C8.55339776,13.520993 8.56329536,13.5109847 8.57319295,13.4999756 L13.4883397,8.37073804 C14.8799418,6.90052341 14.8294641,4.56859686 13.3764968,3.16143432 C13.3309679,3.11839876 13.2844492,3.07536321 13.2369407,3.03432931" id="Fill-1" fill="#00C7C9"></path>
    </g>
</svg>