<?xml version="1.0" encoding="UTF-8"?>
<svg width="32px" height="32px" viewBox="0 0 32 32" version="1.1" xmlns="http://www.w3.org/2000/svg" xmlns:xlink="http://www.w3.org/1999/xlink">
    <title>ic-heart-line-color</title>
    <g id="ic-heart-line-color" stroke="none" stroke-width="1" fill="none" fill-rule="evenodd">
        <path d="M25.0811144,15.6552296 L16.1731742,24.7311317 C16.1085735,24.826542 15.9783782,24.8503946 15.8839618,24.7857939 C15.8620969,24.770886 15.8432136,24.7520027 15.8283058,24.7311317 L6.91937164,15.6552296 C4.90184193,13.5820439 4.9465655,10.266537 7.01875734,8.24900726 C7.10621676,8.16353556 7.19665774,8.08104543 7.2900803,8.00253072 C9.39010014,6.35869125 12.3985053,6.58926607 14.2222329,8.53623193 L16.000243,10.3490271 L17.7782532,8.53623193 C19.5999931,6.5862845 22.6093921,6.3527281 24.7104058,7.99756144 C26.9217376,9.88092045 27.1861036,13.2004028 25.3017507,15.4117347 C25.2311868,15.4952186 25.1576414,15.5767149 25.0811144,15.6552296 M26.279706,6.13308571 C23.1709213,3.69515449 18.7164542,4.02610887 16.000243,6.89537403 C13.2860196,4.02213344 8.82956479,3.69117906 5.7207801,6.13308571 C2.48080628,8.87414331 2.07730034,13.7231716 4.81835794,16.9621516 C4.93463921,17.1002977 5.05688362,17.2344684 5.18210961,17.3636698 L14.0900499,26.4395719 C15.117698,27.495048 16.8062611,27.5189006 17.8627311,26.4912525 C17.8766451,26.4773385 17.8925468,26.4624306 17.9064608,26.4465289 L26.814401,17.3716207 C29.7810642,14.3314121 29.7194451,9.46250665 26.6792365,6.49584351 C26.5510289,6.37061753 26.4178521,6.24936698 26.279706,6.13308571" id="Fill-1" fill="#00C7C9"></path>
    </g>
</svg>