<?xml version="1.0" encoding="UTF-8"?>
<svg width="16px" height="24px" viewBox="0 0 16 24" version="1.1" xmlns="http://www.w3.org/2000/svg" xmlns:xlink="http://www.w3.org/1999/xlink">
    <title>ic-more-white</title>
    <defs>
        <polygon id="path-1" points="0.0001 -0.0001 4 -0.0001 4 3.9999 0.0001 3.9999"></polygon>
        <polygon id="path-3" points="0.0001 -0.0001 4 -0.0001 4 3.9999 0.0001 3.9999"></polygon>
        <polygon id="path-5" points="0.0001 0 4 0 4 3.9999 0.0001 3.9999"></polygon>
    </defs>
    <g id="ic-more-white" stroke="none" stroke-width="1" fill="none" fill-rule="evenodd">
        <g id="Group-10" transform="translate(6.000000, 3.000000)">
            <g id="Group-3" transform="translate(0.000000, 14.000000)">
                <mask id="mask-2" fill="white">
                    <use xlink:href="#path-1"></use>
                </mask>
                <g id="Clip-2"></g>
                <path d="M4.0001,1.9999 C4.0001,3.1039 3.1041,3.9999 2.0001,3.9999 C0.8961,3.9999 0.0001,3.1039 0.0001,1.9999 C0.0001,0.8959 0.8961,-0.0001 2.0001,-0.0001 C3.1041,-0.0001 4.0001,0.8959 4.0001,1.9999" id="Fill-1" fill="#FFFFFF" mask="url(#mask-2)"></path>
            </g>
            <g id="Group-6" transform="translate(0.000000, 7.000000)">
                <mask id="mask-4" fill="white">
                    <use xlink:href="#path-3"></use>
                </mask>
                <g id="Clip-5"></g>
                <path d="M4.0001,1.9999 C4.0001,3.1039 3.1041,3.9999 2.0001,3.9999 C0.8961,3.9999 0.0001,3.1039 0.0001,1.9999 C0.0001,0.8959 0.8961,-0.0001 2.0001,-0.0001 C3.1041,-0.0001 4.0001,0.8959 4.0001,1.9999" id="Fill-4" fill="#FFFFFF" mask="url(#mask-4)"></path>
            </g>
            <g id="Group-9">
                <mask id="mask-6" fill="white">
                    <use xlink:href="#path-5"></use>
                </mask>
                <g id="Clip-8"></g>
                <path d="M4.0001,1.9999 C4.0001,3.1039 3.1041,3.9999 2.0001,3.9999 C0.8961,3.9999 0.0001,3.1039 0.0001,1.9999 C0.0001,0.8959 0.8961,-0.0001 2.0001,-0.0001 C3.1041,-0.0001 4.0001,0.8959 4.0001,1.9999" id="Fill-7" fill="#FFFFFF" mask="url(#mask-6)"></path>
            </g>
        </g>
    </g>
</svg>