<?xml version="1.0" encoding="UTF-8"?>
<svg width="16px" height="16px" viewBox="0 0 16 16" version="1.1" xmlns="http://www.w3.org/2000/svg" xmlns:xlink="http://www.w3.org/1999/xlink">
    <title>ic-memo</title>
    <defs>
        <polygon id="path-1" points="0 0 9.7499 0 9.7499 12.9998 0 12.9998"></polygon>
    </defs>
    <g id="ic-memo" stroke="none" stroke-width="1" fill="none" fill-rule="evenodd">
        <g id="Group-3" transform="translate(3.000000, 1.500000)">
            <mask id="mask-2" fill="white">
                <use xlink:href="#path-1"></use>
            </mask>
            <g id="Clip-2"></g>
            <path d="M8.5309,11.7808 L8.5309,4.4688 L5.8909,4.4688 C5.5549,4.4688 5.2829,4.1978 5.2819,3.8618 L5.2819,3.8598 L5.2819,1.2188 L1.2189,1.2188 L1.2189,11.7808 L8.5309,11.7808 Z M6.4999,1.3178 L6.4999,3.2498 L8.4319,3.2498 L6.4999,1.3178 Z M9.7499,3.3488 L9.7499,11.7808 C9.7499,12.4548 9.2049,12.9998 8.5309,12.9998 L1.2189,12.9998 C0.5459,12.9998 -0.0001,12.4548 -0.0001,11.7808 L-0.0001,1.2188 C-0.0001,0.5458 0.5459,-0.0002 1.2189,-0.0002 L6.3999,-0.0002 C6.7229,0.0008 7.0329,0.1298 7.2609,0.3578 L9.3909,2.4878 C9.6209,2.7158 9.7499,3.0258 9.7499,3.3488 L9.7499,3.3488 Z M7.0119,8.1288 L2.7419,8.1288 C2.5779,8.1318 2.4449,8.2628 2.4419,8.4278 L2.4419,9.1388 C2.4449,9.3028 2.5779,9.4358 2.7419,9.4388 L7.0089,9.4388 C7.1729,9.4358 7.3049,9.3028 7.3079,9.1388 L7.3079,8.4298 C7.3069,8.2628 7.1749,8.1288 7.0089,8.1248 L7.0119,8.1288 Z M7.3119,6.3008 L7.3119,7.0108 C7.3089,7.1758 7.1769,7.3078 7.0119,7.3108 L2.7419,7.3108 C2.5779,7.3078 2.4449,7.1758 2.4419,7.0108 L2.4419,6.3008 C2.4449,6.1348 2.5779,6.0038 2.7419,5.9998 L7.0089,5.9998 C7.1739,6.0018 7.3089,6.1348 7.3119,6.3008 L7.3119,6.3008 Z" id="Fill-1" fill="#999999" mask="url(#mask-2)"></path>
        </g>
    </g>
</svg>