<?xml version="1.0" encoding="UTF-8"?>
<svg width="20px" height="20px" viewBox="0 0 20 20" version="1.1" xmlns="http://www.w3.org/2000/svg" xmlns:xlink="http://www.w3.org/1999/xlink">
    <title>ic-map</title>
    <g id="ic-map" stroke="none" stroke-width="1" fill="none" fill-rule="evenodd">
        <path d="M18.937011,6.508 L14.218011,8.656 L14.218011,18.5 L18.999011,16.588 C19.415011,16.422 19.687011,16.02 19.687011,15.573 L19.687011,7.016 C19.687011,6.714 19.442011,6.469 19.140011,6.469 C19.071011,6.469 19.001011,6.482 18.937011,6.508 L18.937011,6.508 Z M9.84301096,13.293 C9.36201096,13.293 8.90601096,13.081 8.59501096,12.713 C7.92301096,11.92 7.20801096,11.013 6.56201096,10.091 L6.56201096,16.312 L13.125011,18.5 L13.125011,10.092 C12.477011,11.018 11.763011,11.921 11.091011,12.714 C10.781011,13.081 10.324011,13.293 9.84301096,13.293 L9.84301096,13.293 Z M0.687010955,8.381 C0.270010955,8.548 -0.00198904482,8.951 -2.13162821e-14,9.4 L-2.13162821e-14,17.956 C-2.13162821e-14,18.258 0.244010955,18.503 0.546010955,18.503 C0.616010955,18.503 0.684010955,18.49 0.750010955,18.464 L5.46801096,16.316 L5.46801096,8.346 C5.18201096,7.838 4.93901096,7.307 4.74201096,6.759 L0.687010955,8.381 Z M9.84301096,1 C7.46401096,1 5.53601096,2.928 5.53601096,5.307 C5.53601096,7.23 8.35101096,10.735 9.42901096,12.007 C9.62001096,12.235 9.95901096,12.265 10.188011,12.075 C10.212011,12.054 10.236011,12.031 10.256011,12.007 C11.334011,10.735 14.149011,7.23 14.149011,5.307 C14.149011,2.928 12.221011,1.001 9.84301096,1 L9.84301096,1 Z" id="Fill-1" fill="#00C7C9"></path>
    </g>
</svg>