<?xml version="1.0" encoding="UTF-8"?>
<svg width="20px" height="20px" viewBox="0 0 20 20" version="1.1" xmlns="http://www.w3.org/2000/svg" xmlns:xlink="http://www.w3.org/1999/xlink">
    <title>ic-mappin-color</title>
    <g id="ic-mappin-color" stroke="none" stroke-width="1" fill="none" fill-rule="evenodd">
        <path d="M9.99950476,10.55 C11.4961143,10.55 12.7074667,9.326 12.7074667,7.816 C12.7074667,6.306 11.4961143,5.082 9.99950476,5.082 C8.50586667,5.082 7.29451429,6.304 7.2925309,7.812 C7.29055238,9.322 8.49992381,10.548 9.99554286,10.55 L9.99950476,10.55 Z M9.33192381,18.397 C4.41321905,11.197 3.5,10.458 3.5,7.812 C3.5,4.188 6.41100952,1.25 10.0004952,1.25 C13.589981,1.25 16.5,4.188 16.5,7.812 C16.5,10.458 15.5877714,11.197 10.6690667,18.396 C10.4125333,18.768 9.90540952,18.861 9.53695238,18.602 C9.45672381,18.547 9.38838095,18.477 9.33192381,18.396 L9.33192381,18.397 Z" id="Fill-1" fill="#00C7C9"></path>
    </g>
</svg>