<?xml version="1.0" encoding="UTF-8"?>
<svg width="64px" height="64px" viewBox="0 0 64 64" version="1.1" xmlns="http://www.w3.org/2000/svg" xmlns:xlink="http://www.w3.org/1999/xlink">
    <title>ic-picture-grey</title>
    <g id="ic-picture-grey" stroke="none" stroke-width="1" fill="none" fill-rule="evenodd">
        <path d="M21.1638,29.9253 L25.5188,25.5703 C26.0358,25.0543 26.8728,25.0543 27.3898,25.5703 L31.7438,29.9253 L43.1528,18.5163 C43.6698,18.0003 44.5068,18.0003 45.0228,18.5163 L52.8998,26.4003 L52.8998,35.2173 L21.1608,35.2173 L21.1638,29.9253 Z M29.1008,19.3443 C29.1008,21.7793 27.1258,23.7533 24.6908,23.7533 C22.2558,23.7533 20.2818,21.7793 20.2818,19.3443 C20.2818,16.9083 22.2558,14.9353 24.6908,14.9353 C27.1258,14.9353 29.1008,16.9083 29.1008,19.3443 L29.1008,19.3443 Z M58.1898,7.0013 C61.1118,7.0013 63.4798,9.3693 63.4798,12.2903 L63.4798,40.5053 C63.4798,43.4263 61.1118,45.7953 58.1898,45.7953 L15.8708,45.7953 C12.9488,45.7953 10.5808,43.4263 10.5808,40.5053 L10.5808,12.2893 C10.5808,9.3683 12.9488,7.0003 15.8708,7.0003 L58.1898,7.0013 Z M57.5288,12.2903 L16.5288,12.2903 C16.1638,12.2903 15.8678,12.5873 15.8678,12.9513 L15.8678,39.8443 C15.8678,40.2093 16.1638,40.5053 16.5288,40.5053 L57.5288,40.5053 C57.8938,40.5053 58.1898,40.2093 58.1898,39.8443 L58.1898,12.9513 C58.1898,12.5873 57.8958,12.2913 57.5318,12.2893 L57.5288,12.2903 Z M52.8998,49.3223 L52.8998,51.0863 C52.8998,54.0073 50.5318,56.3763 47.6098,56.3763 L5.2898,56.3763 C2.3688,56.3763 -0.0002,54.0073 -0.0002,51.0863 L-0.0002,22.8703 C-0.0002,19.9493 2.3688,17.5803 5.2898,17.5803 L7.0538,17.5803 L7.0538,22.8703 L5.9528,22.8703 C5.5878,22.8703 5.2918,23.1663 5.2918,23.5313 L5.2918,50.4253 C5.2918,50.7903 5.5878,51.0863 5.9528,51.0863 L46.9528,51.0863 C47.3178,51.0863 47.6138,50.7903 47.6138,50.4253 L47.6138,49.3243 L52.8998,49.3223 Z" id="Fill-1" fill="#BBBBBB"></path>
    </g>
</svg>