<?xml version="1.0" encoding="UTF-8"?>
<svg width="24px" height="24px" viewBox="0 0 24 24" version="1.1" xmlns="http://www.w3.org/2000/svg" xmlns:xlink="http://www.w3.org/1999/xlink">
    <title>ic-place</title>
    <defs>
        <polygon id="path-1" points="3.27944471e-05 0.000350474635 19.6842667 0.000350474635 19.6842667 23.9999262 3.27944471e-05 23.9999262"></polygon>
    </defs>
    <g id="ic-place" stroke="none" stroke-width="1" fill="none" fill-rule="evenodd">
        <g id="Group-6" transform="translate(2.000000, 0.000000)">
            <g id="Group-3">
                <mask id="mask-2" fill="white">
                    <use xlink:href="#path-1"></use>
                </mask>
                <g id="Clip-2"></g>
                <path d="M16.6288,10.9129067 C16.2992,12.71024 15.2693333,14.3033067 13.7658667,15.34224 L9.88053333,18.0259733 C9.28906667,17.1347733 8.4224,16.4617067 7.41226667,16.1097067 C4.34826667,14.9545067 2.51946667,11.8025067 3.0384,8.56944 L3.03893333,8.56997333 C3.64746667,5.24944 6.51786667,2.82277333 9.8928,2.77370667 C10.2234667,2.77424 10.5536,2.79930667 10.8805333,2.84944 C12.7269333,3.12784 14.3802667,4.14597333 15.4592,5.67024 C16.5456,7.18597333 16.9685333,9.07877333 16.6288,10.9129067 M11.3328,0.10864 C10.8554667,0.0355733333 10.3733333,-0.000693333333 9.8896,0.000350474635 C5.064,0.0339733333 0.9536,3.51557333 0.1264,8.26970667 C-0.621866667,12.9065067 2.01386667,17.4249067 6.4176,19.0569067 C6.52053333,19.0793067 6.61813333,19.1187733 6.70666667,19.1747733 C7.12906667,19.4409067 7.25546667,19.99824 6.98933333,20.4201067 C6.656,21.0435733 6.3216,21.67824 5.69706667,22.8035733 L5.69706667,22.8041067 C5.624,22.9289067 5.58666667,23.0713067 5.5888,23.21584 C5.5952,23.6553067 5.95626667,24.00624 6.39573333,23.9999262 C6.57173333,23.9961067 6.74293333,23.9433067 6.89013333,23.84784 L15.4384,17.94064 C17.5882667,16.45744 19.0586667,14.17744 19.5226667,11.6067733 C19.5392,11.51504 19.5546667,11.42384 19.5690667,11.33264 C20.3941333,5.95877333 16.7066667,0.933706667 11.3328,0.10864" id="Fill-1" fill="#FFFFFF" mask="url(#mask-2)"></path>
            </g>
            <path d="M9.84597333,13.3168 C8.66677333,13.3162667 7.56757333,12.7205333 6.92277333,11.7333333 C6.17024,10.5792 6.17024,9.09013333 6.92277333,7.936 C7.11744,7.62186667 7.53077333,7.52533333 7.84490667,7.72 C7.99157333,7.8112 8.09770667,7.9552 8.14090667,8.12266667 C8.37984,8.93066667 8.81824,9.66613333 9.41610667,10.2602667 C10.30784,11.1536 11.4987733,11.6853333 12.7585067,11.7536 C12.62624,11.9504 12.47584,12.1344 12.30944,12.3034667 C11.65664,12.9546667 10.77184,13.3205333 9.84970667,13.3200006 L9.84597333,13.3168 Z" id="Fill-4" fill="#FFFFFF"></path>
        </g>
    </g>
</svg>