<?xml version="1.0" encoding="UTF-8"?>
<svg width="20px" height="20px" viewBox="0 0 20 20" version="1.1" xmlns="http://www.w3.org/2000/svg" xmlns:xlink="http://www.w3.org/1999/xlink">
    <title>ic-route-gray</title>
    <g id="ic-route-gray" stroke="none" stroke-width="1" fill="none" fill-rule="evenodd">
        <path d="M15.2940122,3.72975467 C14.7226334,3.72975467 14.2588199,4.19356821 14.2588199,4.76494703 C14.2588199,5.33632584 14.7226334,5.80013939 15.2940122,5.80013939 C15.8663779,5.80013939 16.3301914,5.33632584 16.3301914,4.76494703 C16.3292046,4.19554189 15.8693384,3.73271518 15.2989464,3.72975467 L15.2940122,3.72975467 Z M6.05326745,18.5629066 L6.3957,18.1316587 C6.83484261,17.5790298 7.22957755,17.0352824 7.5720101,16.516206 L7.64997025,16.3958118 L15.2949991,16.3958118 C15.8673647,16.3958118 16.3321651,15.9310114 16.3321651,15.3586458 C16.3321651,14.787267 15.8673647,14.3224666 15.2949991,14.3224666 L12.1203434,14.3224666 C10.3519309,14.3550322 8.89338529,12.9458285 8.86081966,11.1764292 C8.8302277,9.40801667 10.2394314,7.94848426 12.0078439,7.91690547 L12.1203434,7.91690547 L13.5749416,7.91690547 C12.8052085,7.01789666 12.2940267,5.92645457 12.0946856,4.76001284 C12.0631068,2.99061351 13.4713237,1.53108109 15.240723,1.50048914 C17.0091355,1.46989718 18.4686679,2.87811405 18.4992599,4.64751339 C18.5002467,4.68501321 18.5002467,4.72251302 18.4992599,4.76001284 C18.2791951,5.990599 17.7285399,7.13829081 16.9065044,8.07973363 C16.2680207,8.96887406 15.6334843,9.71097574 15.3887486,9.99123754 L15.3088148,10.0820266 L12.1203434,10.0820266 C11.5479777,10.0820266 11.0841642,10.5458401 11.0841642,11.1172189 C11.0841642,11.6895846 11.5479777,12.154385 12.1203434,12.154385 L15.2989464,12.154385 C17.0683457,12.1849769 18.4775495,13.6445093 18.4449838,15.4129218 C18.4153787,17.1379135 17.0239381,18.5293541 15.2989464,18.5589592 L6.05326745,18.5629066 Z M4.69932663,12.2057005 C4.12696098,12.2057005 3.66413427,12.6695141 3.66314743,13.2408929 C3.66314743,13.8122717 4.12696098,14.2760852 4.69932663,14.2760852 C5.27070544,14.2760852 5.73353215,13.8122717 5.73353215,13.2408929 C5.73254531,12.6724746 5.27267912,12.2116215 4.70426082,12.208661 L4.69932663,12.2057005 Z M4.50097233,18.3448155 C4.2147895,18.0112645 3.65031855,17.3372546 3.09275545,16.5596268 C2.27071996,15.618184 1.72006472,14.471479 1.5,13.2418797 C1.53157879,11.4724804 2.99012437,10.0642635 4.75952371,10.0948555 C6.48451536,10.1244606 7.87496916,11.5168881 7.90654796,13.2418797 C7.68549639,14.4734527 7.13484116,15.6211445 6.31181883,16.5635742 C5.75425574,17.3392283 5.19175846,18.0132382 4.90557563,18.3458024 L4.70722133,18.5806697 L4.50097233,18.3448155 Z" id="Fill-1" fill="#555555"></path>
    </g>
</svg>