<?xml version="1.0" encoding="UTF-8"?>
<svg width="16px" height="16px" viewBox="0 0 16 16" version="1.1" xmlns="http://www.w3.org/2000/svg" xmlns:xlink="http://www.w3.org/1999/xlink">
    <title>ic-shop</title>
    <g id="ic-shop" stroke="none" stroke-width="1" fill="none" fill-rule="evenodd">
        <path d="M13.0271688,8.53944988 C12.8015673,8.53645517 12.576964,8.50850454 12.3573518,8.45260327 L12.3573518,10.7136098 L3.64573848,10.7136098 L3.64573848,8.44861032 C3.42612636,8.50251512 3.20052483,8.53146399 2.97592153,8.5344587 C2.83916307,8.53545693 2.70240462,8.52547456 2.5666444,8.50850454 C2.44086655,8.4885398 2.31608694,8.4615874 2.19430204,8.42664911 L2.19430204,12.8907645 C2.19430204,13.2920557 2.51972727,13.617481 2.92002026,13.617481 L13.087063,13.617481 C13.487356,13.617481 13.811783,13.2920557 13.811783,12.8907645 L13.811783,8.42664911 C13.6899981,8.46358388 13.5662167,8.49053627 13.4394406,8.50850454 C13.3026822,8.52547456 13.1649255,8.5344587 13.0261706,8.5344587 L13.0271688,8.53944988 Z M14.6722632,4.69523961 L13.1998638,2.34039878 C13.0661,2.12877256 12.8345091,2.00099824 12.5849498,2 L3.41714223,2 C3.16758301,2.00099824 2.93599205,2.12877256 2.80322654,2.34039878 L1.32683418,4.69523961 C0.717909675,5.63358229 0.984438926,6.88736782 1.92178337,7.49629233 C2.1473849,7.64303315 2.3989406,7.7418586 2.6614769,7.79077221 C2.76529354,7.80374929 2.86811194,7.81073695 2.97292681,7.81073695 C3.61179843,7.81073695 4.22172117,7.53722004 4.64597185,7.06006281 C5.47051552,7.98443017 6.88701367,8.06628559 7.81138103,7.24274016 C7.87626643,7.18584065 7.93715888,7.12394997 7.99505662,7.06006281 C8.81860205,7.98443017 10.2360984,8.06628559 11.161464,7.24274016 C11.2253512,7.18584065 11.2872419,7.12394997 11.3441414,7.06006281 C11.7703885,7.5362218 12.379313,7.80973871 13.0181847,7.81073695 C13.1229995,7.81073695 13.2258179,7.80374929 13.3296346,7.79077221 C14.4286934,7.59611602 15.1633957,6.54696904 14.9687395,5.44691199 C14.9218224,5.1793845 14.8210005,4.92383586 14.6722632,4.69523961 L14.6722632,4.69523961 Z" id="Fill-1" fill="#999999"></path>
    </g>
</svg>