<?xml version="1.0" encoding="UTF-8"?>
<svg width="32px" height="32px" viewBox="0 0 32 32" version="1.1" xmlns="http://www.w3.org/2000/svg" xmlns:xlink="http://www.w3.org/1999/xlink">
    <title>ic-star-half</title>
    <g id="ic-star-half" stroke="none" stroke-width="1" fill="none" fill-rule="evenodd">
        <path d="M22.2122365,17.8874517 L21.2648059,18.8078985 L21.4886714,20.108117 L22.5090581,26.0365539 L17.168268,23.2362369 L16.0009696,22.6216063 L16.0009696,6.04756764 L18.667367,11.4453235 L19.2510162,12.6266135 L20.5582306,12.8174988 L26.5266435,13.6879756 L22.2122365,17.8874517 Z M28.5694157,11.4503205 L20.9220119,10.3369896 L17.5050656,3.41814797 C17.0853179,2.59164472 16.0749251,2.26184293 15.2484219,2.68259006 C14.9316123,2.84349335 14.6737673,3.10133838 14.5118646,3.41814797 L11.0799272,10.3349908 L3.43252344,11.4483217 C2.51907244,11.579243 1.88545326,12.4267337 2.01737397,13.3401847 C2.07034214,13.7049654 2.24223882,14.0437618 2.50707965,14.3006074 L8.03675622,19.6833723 L6.72754308,27.2828049 C6.57263618,28.1952565 7.18526798,29.0627351 8.09771958,29.217642 C8.19166311,29.2336324 8.28460725,29.2406282 8.37855079,29.2416276 C8.65038741,29.2406282 8.91722704,29.172669 9.15708288,29.0447459 L15.9989708,25.4579017 L22.8408587,29.0467447 C23.6553691,29.4794846 24.6677607,29.1686714 25.0995012,28.3531616 C25.2733967,28.026358 25.3323612,27.6515832 25.2703985,27.2858031 L23.9581871,19.6833723 L29.4928607,14.3036056 C30.1544631,13.6609918 30.1714529,12.6026279 29.5278397,11.9410256 C29.2699947,11.6751853 28.9331971,11.5022893 28.5664175,11.4503205 L28.5694157,11.4503205 Z" id="Fill-1" fill="#CCCCCC"></path>
    </g>
</svg>