<?xml version="1.0" encoding="UTF-8"?>
<svg width="20px" height="20px" viewBox="0 0 20 20" version="1.1" xmlns="http://www.w3.org/2000/svg" xmlns:xlink="http://www.w3.org/1999/xlink">
    <title>ic-search-grey</title>
    <g id="ic-search-grey" stroke="none" stroke-width="1" fill="none" fill-rule="evenodd">
        <path d="M9.92281161,11.296 C8.27681161,11.296 6.94381161,9.961 6.94381161,8.316 C6.94381161,7.74 7.10981161,7.179 7.42281161,6.696 C7.46281161,6.622 7.53881161,6.574 7.62281161,6.57 C7.74081161,6.575 7.84381161,6.655 7.87481161,6.771 C8.44581161,8.67 10.0188116,10.101 11.9648116,10.488 C11.4118116,11.009 10.6798116,11.296 9.92081161,11.292 L9.92281161,11.296 Z M16.1228116,3.897 C14.9328116,2.215 13.1088116,1.091 11.0698116,0.785 C10.7008116,0.729 10.3278116,0.7 9.95481161,0.7 C6.21581161,0.716 3.02781161,3.415 2.39681161,7.101 C1.82181161,10.685 3.85481161,14.177 7.25481161,15.447 C7.60781161,15.552 7.89481161,15.809 8.03881161,16.148 C8.15881161,16.474 8.12681161,16.837 7.95181161,17.138 L7.79881161,17.421 C7.56781161,17.852 7.30781161,18.334 6.88981161,19.086 C6.84281161,19.159 6.84081161,19.252 6.88481161,19.326 C6.93181161,19.404 7.01481161,19.452 7.10581161,19.452 C7.16581161,19.451 7.22581161,19.434 7.27681161,19.402 L14.2508116,14.581 C17.7118116,12.189 18.5778116,7.443 16.1858116,3.983 C16.1648116,3.953 16.1448116,3.924 16.1238116,3.896 L16.1228116,3.897 Z" id="Fill-1" fill="#AAAAAA"></path>
    </g>
</svg>