<?xml version="1.0" encoding="UTF-8"?>
<svg width="32px" height="32px" viewBox="0 0 32 32" version="1.1" xmlns="http://www.w3.org/2000/svg" xmlns:xlink="http://www.w3.org/1999/xlink">
    <title>ic-star-color</title>
    <g id="ic-star-color" stroke="none" stroke-width="1" fill="none" fill-rule="evenodd">
        <path d="M14.4979354,2.98439627 L11.0810309,10.2809215 L3.43871775,11.4552013 C2.46931227,11.6490824 1.84069779,12.5935032 2.03557827,13.5629087 C2.10453598,13.9036997 2.26943485,14.2155085 2.51228591,14.4633565 L8.04289411,20.1398752 L6.73369701,28.1579579 C6.5408153,29.0723971 7.12645614,29.9718454 8.04089534,30.1647272 C8.42066243,30.2446781 8.81641972,30.19271 9.16220766,30.0158185 L15.997016,26.2291408 L22.8358219,30.0148191 C23.6743077,30.4355611 24.6946819,30.0977682 25.1164233,29.2582831 C25.2873185,28.9184914 25.3392866,28.5307292 25.2623338,28.1569585 L23.9551355,20.1388758 L29.4887418,14.4633565 C30.1803177,13.7567898 30.1693244,12.6234848 29.4627578,11.9309096 C29.2149098,11.6880585 28.9021016,11.5231596 28.5613106,11.4552013 L20.9199969,10.2809215 L17.5030924,2.98439627 C17.1413142,2.15490498 16.1759063,1.77513788 15.346415,2.13691601 C14.9666479,2.30181488 14.6628342,2.60462917 14.4979354,2.98439627" id="Fill-1" fill="#F3645A"></path>
    </g>
</svg>