<?xml version="1.0" encoding="UTF-8"?>
<svg width="24px" height="24px" viewBox="0 0 24 24" version="1.1" xmlns="http://www.w3.org/2000/svg" xmlns:xlink="http://www.w3.org/1999/xlink">
    <title>ic-setting</title>
    <defs>
        <polygon id="path-1" points="0 0.0003 18.3337693 0.0003 18.3337693 19.1526 0 19.1526"></polygon>
    </defs>
    <g id="ic-setting" stroke="none" stroke-width="1" fill="none" fill-rule="evenodd">
        <g id="Group-3" transform="translate(2.500000, 2.000000)">
            <mask id="mask-2" fill="white">
                <use xlink:href="#path-1"></use>
            </mask>
            <g id="Clip-2"></g>
            <path d="M9.1642,12.6656 C7.4582,12.6636 6.0772,11.2796 6.07819946,9.5736 C6.0802,7.8676 7.4652,6.4856 9.1712,6.48759783 C10.8752,6.4886 12.2572,7.8716 12.2572,9.5766 C12.2542,11.2826 10.8712,12.6646 9.1642,12.6656 M18.1002,11.8816 L16.4542,10.9316 C16.6202,10.0356 16.6202,9.1176 16.4542,8.2216 L18.1002,7.2716 C18.2872,7.1626 18.3752,6.9376 18.3112,6.7306 C17.8872,5.3716 17.1652,4.1236 16.1992,3.0776 C16.0532,2.9186 15.8162,2.8826 15.6292,2.9886 L13.9832,3.9386 C13.2922,3.3446 12.4962,2.8846 11.6362,2.5836 L11.6362,0.6836 C11.6362,0.4666 11.4842,0.2786 11.2722,0.2316 C9.8842,-0.0774 8.4442,-0.0774 7.0572,0.2316 C6.8452,0.2786 6.6932,0.4666 6.6932,0.6836 L6.6932,2.5836 C5.8352,2.8896 5.0392,3.3486 4.3462,3.9386 L2.7042,2.9886 C2.5172,2.8796 2.2792,2.9166 2.1342,3.0776 C1.1662,4.1226 0.4442,5.3706 0.0212,6.7306 C-0.0438,6.9376 0.0442,7.1636 0.2332,7.2716 L1.8792,8.2216 C1.7132,9.1176 1.7132,10.0356 1.8792,10.9316 L0.2332,11.8816 C0.0462,11.9906 -0.0418,12.2156 0.0212,12.4226 C0.4462,13.7816 1.1682,15.0296 2.1342,16.0756 C2.2802,16.2336 2.5172,16.2706 2.7042,16.1646 L4.3502,15.2146 C5.0402,15.8096 5.8372,16.2696 6.6972,16.5696 L6.6972,18.4696 C6.6972,18.6866 6.8492,18.8746 7.0602,18.9216 C8.4492,19.2296 9.8882,19.2296 11.2762,18.9216 C11.4882,18.8746 11.6402,18.6866 11.6402,18.4696 L11.6402,16.5696 C12.4982,16.2646 13.2932,15.8056 13.9872,15.2146 L15.6332,16.1646 C15.8202,16.2736 16.0582,16.2366 16.2032,16.0756 C17.1712,15.0306 17.8932,13.7826 18.3152,12.4226 C18.3752,12.2146 18.2862,11.9916 18.1002,11.8816" id="Fill-1" fill="#555555" mask="url(#mask-2)"></path>
        </g>
    </g>
</svg>