<?xml version="1.0" encoding="UTF-8"?>
<svg width="32px" height="32px" viewBox="0 0 32 32" version="1.1" xmlns="http://www.w3.org/2000/svg" xmlns:xlink="http://www.w3.org/1999/xlink">
    <title>ic-star-grey</title>
    <g id="ic-star-grey" stroke="none" stroke-width="1" fill="none" fill-rule="evenodd">
        <path d="M14.4969745,2.98507509 L11.0801414,10.2804485 L3.43898726,11.4547038 C2.46860265,11.6495803 1.84100066,12.592982 2.03487771,13.5633666 C2.10383398,13.9031511 2.26972877,14.2159527 2.51257477,14.4627962 L8.04206809,20.1401957 L6.7338977,28.1571116 C6.54102002,29.072531 7.12664863,29.9709613 8.04106873,30.163839 C8.42082789,30.2437883 8.81557755,30.1918212 9.16135826,30.0149334 L15.9960239,26.2283348 L22.8356863,30.013934 C23.6741546,30.4346672 24.6945075,30.0968814 25.1162401,29.2584132 C25.2871317,28.9176293 25.3390987,28.5308745 25.2621475,28.1561122 L23.9549765,20.1391963 L29.4874679,14.4627962 C30.1800287,13.7562443 30.1690357,12.6239623 29.4624838,11.9304022 C29.2146409,11.6885555 28.9018393,11.5226608 28.5610554,11.4547038 L20.9199013,10.2804485 L17.5030681,2.98507509 C17.1412976,2.15460175 16.1749104,1.77484259 15.3454365,2.13661316 C14.9656773,2.30150859 14.6628693,2.60531592 14.4969745,2.98507509" id="Fill-1" fill="#CCCCCC"></path>
    </g>
</svg>