<?xml version="1.0" encoding="UTF-8"?>
<svg width="20px" height="20px" viewBox="0 0 20 20" version="1.1" xmlns="http://www.w3.org/2000/svg" xmlns:xlink="http://www.w3.org/1999/xlink">
    <title>ic-share-color</title>
    <g id="ic-share-color" stroke="none" stroke-width="1" fill="none" fill-rule="evenodd">
        <path d="M13.563,14.8198733 C13.781,14.7583068 13.99,14.6659572 14.182,14.5467963 C14.348,14.4445165 14.567,14.4961529 14.669,14.6609921 C14.704,14.7166005 14.722,14.780153 14.722,14.8446985 L14.722,16.0929087 C14.722,16.8694404 14.087,17.5 13.305,17.5 L2.917,17.5 C2.135,17.5 1.501,16.8704334 1.5,16.0948947 L1.5,5.77854184 C1.5,5.00201014 2.135,4.37244351 2.917,4.37244351 L6.817,4.37244351 C7.012,4.37244351 7.171,4.53033167 7.171,4.72396809 L7.171,4.85504506 C7.171,4.99903111 7.083,5.12911507 6.948,5.18174446 C6.559,5.33069555 6.183,5.5134089 5.825,5.72690546 C5.769,5.76066771 5.706,5.77854184 5.64,5.77854184 L3.094,5.77854184 C2.997,5.77854184 2.917,5.85698942 2.917,5.95430414 L2.917,15.9191324 C2.917,16.0164471 2.997,16.0948947 3.094,16.0948947 L13.128,16.0948947 C13.226,16.0948947 13.305,16.0164471 13.305,15.9191324 L13.305,15.1584888 C13.305,15.0015936 13.411,14.8625726 13.563,14.8198733 L13.563,14.8198733 Z M12.834,12.3433131 L12.834,9.30073873 C9.033,9.35734015 6.414,9.97995573 7.589,13.5170477 C6.476,12.8944321 5.777,11.7345996 5.751,10.4665293 C5.751,7.26209475 9.561,6.98008068 12.834,6.95426249 L12.834,3.90275106 L17.084,8.12303208 L12.834,12.3433131 Z M18.085,7.12903177 L13.835,2.90974376 C13.28,2.36160373 12.382,2.36358974 11.83,2.91470879 C11.567,3.17785573 11.418,3.53235933 11.417,3.90275106 L11.417,5.58093339 C10.211,5.60675158 9.014,5.78350688 7.853,6.10822027 C6.921,6.36640216 6.076,6.86787085 5.406,7.56098995 C4.688,8.35837481 4.304,9.39805345 4.334,10.4665293 C4.351,12.2201802 5.302,13.8338171 6.834,14.7086565 C7.496,15.1227405 8.371,14.9251891 8.788,14.2677612 C9.013,13.9122646 9.066,13.4753414 8.933,13.0751595 C8.476,11.6948793 8.428,10.9967952 11.417,10.7674105 L11.417,12.3433131 C11.42,13.1208378 12.057,13.7494114 12.84,13.7464324 C13.213,13.7444464 13.571,13.5984743 13.835,13.3363204 L18.085,9.11603938 C18.637,8.56690634 18.637,7.67816481 18.085,7.12903177 L18.085,7.12903177 Z" id="Fill-1" fill="#00C7C9"></path>
    </g>
</svg>