<?xml version="1.0" encoding="UTF-8"?>
<svg width="20px" height="20px" viewBox="0 0 20 20" version="1.1" xmlns="http://www.w3.org/2000/svg" xmlns:xlink="http://www.w3.org/1999/xlink">
    <title>ic-search-white</title>
    <defs>
        <polygon id="path-1" points="2.82456039e-05 0.0004 19.995 0.0004 19.995 19.9954 2.82456039e-05 19.9954"></polygon>
    </defs>
    <g id="ic-search-white" stroke="none" stroke-width="1" fill="none" fill-rule="evenodd">
        <g id="Group-3">
            <mask id="mask-2" fill="white">
                <use xlink:href="#path-1"></use>
            </mask>
            <g id="Clip-2"></g>
            <path d="M8.1215,13.1153 C5.3595,13.1153 3.1215,10.8773 3.1215,8.1153 C3.1215,5.3533 5.3595,3.1153 8.1215,3.1153 C10.8825,3.1153 13.1215,5.3533 13.1215,8.1153 C13.1215,10.8773 10.8835,13.1153 8.1225,13.1163 L8.1195,13.1163 L8.1215,13.1153 Z M19.7215,17.2833 L15.8265,13.3923 C15.6495,13.2173 15.4115,13.1183 15.1625,13.1193 L14.5245,13.1193 C17.2845,9.5833 16.6555,4.4793 13.1195,1.7193 C9.5835,-1.0397 4.4785,-0.4107 1.7195,3.1253 C-1.0405,6.6613 -0.4105,11.7653 3.1255,14.5253 C6.0625,16.8173 10.1825,16.8173 13.1195,14.5253 L13.1195,15.1623 C13.1185,15.4113 13.2175,15.6493 13.3925,15.8263 L17.2875,19.7193 C17.6505,20.0863 18.2425,20.0873 18.6075,19.7233 L18.6115,19.7193 L19.7175,18.6153 C20.0865,18.2483 20.0885,17.6523 19.7215,17.2833 L19.7215,17.2833 Z" id="Fill-1" fill="#FFFFFF" mask="url(#mask-2)"></path>
        </g>
    </g>
</svg>