<?xml version="1.0" encoding="UTF-8"?>
<svg width="20px" height="20px" viewBox="0 0 20 20" version="1.1" xmlns="http://www.w3.org/2000/svg" xmlns:xlink="http://www.w3.org/1999/xlink">
    <title>ic-user-gray</title>
    <g id="ic-user-gray" stroke="none" stroke-width="1" fill="none" fill-rule="evenodd">
        <path d="M13.062,11 L12.5,11 C10.942,11.719 9.147,11.719 7.589,11 L7.027,11 C4.527,11.001 2.5,13.027 2.5,15.527 L2.5,16.927 C2.5,17.82 3.224,18.544 4.118,18.544 L15.973,18.544 C16.867,18.544 17.59,17.82 17.59,16.927 L17.59,15.527 C17.589,13.026 15.563,11 13.062,11 M10.044,9.922 C12.425,9.922 14.355,7.992 14.355,5.611 C14.355,3.23 12.425,1.3 10.044,1.3 C7.664,1.3 5.733,3.23 5.733,5.611 C5.733,7.992 7.664,9.922 10.044,9.922" id="Fill-1" fill="#555555"></path>
    </g>
</svg>