<?xml version="1.0" encoding="utf-8"?>
<!-- Generator: Adobe Illustrator 17.0.0, SVG Export Plug-In . SVG Version: 6.00 Build 0)  -->
<!DOCTYPE svg PUBLIC "-//W3C//DTD SVG 1.1//EN" "http://www.w3.org/Graphics/SVG/1.1/DTD/svg11.dtd">
<svg version="1.1" id="Layer_1" xmlns="http://www.w3.org/2000/svg" xmlns:xlink="http://www.w3.org/1999/xlink" x="0px" y="0px"
	 width="200px" height="200px" viewBox="0 0 200 200" enable-background="new 0 0 200 200" xml:space="preserve">
<g>
	<path fill="#FFFFFF" d="M94.687,93.746c2.319,1.322,9.156,5.356,10.657,6.259c-0.295,0.175-0.931,0.556-2.375,1.422
		c-2.664,1.596-6.952,4.166-8.282,4.94V93.746 M94.449,91.583c-0.984,0-1.802,0.816-1.802,1.981v13.207
		c0,1.051,0.711,1.812,1.69,1.812c0.337,0,0.684-0.095,1.033-0.287c1.124-0.627,11.035-6.587,11.237-6.698
		c0.63-0.341,1.02-0.915,1.038-1.539c0.014-0.363-0.093-1.053-0.941-1.583c-0.544-0.343-9.1-5.396-11.272-6.621
		C95.102,91.668,94.766,91.583,94.449,91.583L94.449,91.583z"/>
</g>
</svg>
