<?xml version="1.0" encoding="utf-8"?>
<!-- Generator: Adobe Illustrator 17.0.0, SVG Export Plug-In . SVG Version: 6.00 Build 0)  -->
<!DOCTYPE svg PUBLIC "-//W3C//DTD SVG 1.1//EN" "http://www.w3.org/Graphics/SVG/1.1/DTD/svg11.dtd">
<svg version="1.1" id="Layer_1" xmlns="http://www.w3.org/2000/svg" xmlns:xlink="http://www.w3.org/1999/xlink" x="0px" y="0px"
	 width="200px" height="200px" viewBox="0 0 200 200" enable-background="new 0 0 200 200" xml:space="preserve">
<g>
	<path fill="#FFFFFF" d="M37.036,25.454c26.9,15.552,106.212,63.017,123.619,73.635c-3.42,2.064-10.798,6.543-27.552,16.724
		c-30.898,18.779-80.647,49.008-96.067,58.115V25.454 M34.275,0c-11.41,0-20.903,9.605-20.903,23.306v155.376
		c0,12.363,8.244,21.317,19.603,21.317c3.911,0,7.938-1.114,11.988-3.379c13.04-7.377,128.004-77.495,130.35-78.799
		c7.303-4.012,11.826-10.768,12.046-18.105c0.168-4.272-1.075-12.389-10.919-18.623C170.13,77.055,70.88,17.607,45.679,3.198
		C41.849,1.005,37.961,0,34.275,0L34.275,0z"/>
</g>
</svg>
